<svg id="Layer_1" xmlns="http://www.w3.org/2000/svg" viewBox="0 0 255.1 255.1"><style>.st0{fill:#fff}</style><path class="st0" d="M69.6 180.2c-1.4 0-2.8.6-3.8 1.6-2.1 2.1-2.1 5.5 0 7.6 1 1 2.3 1.6 3.8 1.6 1.4 0 2.8-.6 3.8-1.6s1.6-2.3 1.6-3.8c0-1.4-.6-2.8-1.6-3.8-1.1-1-2.4-1.6-3.8-1.6zm88.1-88.1c-1.4 0-2.8.6-3.8 1.6-2.1 2.1-2.1 5.5 0 7.5 1 1 2.3 1.6 3.8 1.6 1.4 0 2.8-.6 3.8-1.6s1.6-2.3 1.6-3.8c0-1.4-.6-2.8-1.6-3.8s-2.3-1.5-3.8-1.5z"/><path class="st0" d="M115 179.8l11.3 11.3 78-78-11.3-11.3 45.3-45.3-39.7-39.7-45.3 45.3L142 50.8l-78 78 11.3 11.3-58.6 58.6 39.7 39.7 58.6-58.6zm83.7-159.1l35.8 35.8L191 99.8 155.2 64l43.5-43.3zm-9.9 81.4L129 161.8l-17.4-17.4 2.7-3.4 5.1-5.1 1 .6c2.2 1.3 5.1 1 6.9-.8 1.1-1.1 1.7-2.5 1.7-4s-.6-2.9-1.7-4c-2.1-2.1-5.9-2.1-8 0-1.8 1.8-2.2 4.4-1 6.7l.5 1-8.2 8.2-17.5-17.5L153 66.3l35.8 35.8zM68.6 128.8L142 55.4l9 9-61.7 61.7 19.4 19.4-9.4 9.4.8.8 9.4-9.4 19.4 19.4 61.7-61.7 9 9-73.4 73.4-24.1-24.1-2.2 2.2-9.5-9.5 2.2-2.2-24-24zm-47.9 69.9l56.2-56.2 35.8 35.7-56.2 56.2-35.8-35.7z"/><path class="st0" d="M193.7 56.1c-1.4 0-2.8.6-3.8 1.6-2.1 2.1-2.1 5.5 0 7.5 1 1 2.3 1.6 3.8 1.6 1.4 0 2.8-.6 3.8-1.6s1.6-2.4 1.6-3.8-.6-2.8-1.6-3.8-2.4-1.5-3.8-1.5z"/></svg>