<svg id="Layer_1" xmlns="http://www.w3.org/2000/svg" viewBox="0 0 255.1 255.1"><style>.st0{opacity:.5}.st1{fill:#fff}</style><g class="st0"><path class="st1" d="M233.4 10.3c2.5 1.8 1.9.7 2.5 2.9v35c1.2-.1.6 0 1.7-.1s1.7-.1 2.4-.1c.2 0 5.9-.1 10.2-.1 1.6 0 2.9 1.3 2.9 2.9v2.9h5.8c1.6 0 2.9 1.3 2.9 2.9v175.8c0 1.6-1.3 2.9-2.9 2.9-29.7.4-59.8 1.7-88.8 8.9-7.2 1.8-24.1 5.4-26.5 14.2 0 1.6-1.3 2.9-2.9 2.9h-11.5c-1.6 0-2.9-1.3-2.9-2.9 0-11.6-52.2-23.1-115.3-23.1-1.6 0-2.9-1.3-2.9-2.9v-176c0-1.6 1.3-2.9 2.9-2.9h5.8v-2.9c0-1.6 1.3-2.9 2.9-2.9 30.6.7 62.5 2.5 91.2 14.3 10.1 4.2 16.3 7.3 22.9 16.2 16.6-34.3 64.6-55 98.2-67.8l1.4-.1zm22.7 49h-2.9v164.3c0 1.6-1.3 2.9-2.9 2.9-29.1.5-59 2.3-86.7 11.9-6.5 2.2-17.3 6.2-21.7 12.2 11-9.6 25.9-12.3 39.9-15 24.5-4.6 49.5-5.9 74.4-6.2V59.3zm-239.3 0h-2.9v170.1c30.3.7 61.3 1.6 90.7 10 7 1.5 13.3 4.5 19.6 7.9-1.9-1.3-3.7-2.7-5.7-3.8-29.1-14.4-67-16.5-98.8-17-1.6 0-2.9-1.3-2.9-2.9V59.3zm5.8-5.8v167.2c29.6.7 60.3 2.5 88.4 13.2 9.2 3.2 14.1 6.2 21.2 12.7V88.1c-3.5-16.8-26.8-22.8-40.9-26.4-22.5-5.8-45.7-7.8-68.7-8.2zm16 95.1c31.1 1.8 51 4.7 70.6 11.9.1.1.1.1.3.1-.2-.1 2.7 1 3.5 1.3 3.3 1.2 5.6 2.3 7.7 3.6.8.5 1.4 1.5 1.4 2.4v45.9c0 2.1-2.2 3.5-4.1 2.6-6.4-3-11.6-4.9-16.9-6.3-.8-.2-1.7-.5-2.8-.8-.6-.2-1-.3-2.8-.8h-.1c-18.6-4.9-37.9-6.7-57-8.1-1.5-.1-2.7-1.3-2.7-2.9v-46.2c-.2-1.5 1.2-2.8 2.9-2.7zm2.7 6V195c18.8.7 37.2 4 55.5 8.1 1.8.5 2.2.6 2.8.8 1.1.3 2 .6 2.8.8 4.7 1.2 9.3 2.8 13.8 4.8v-39.7c-2.8-1.5-1-.6-5.3-2.4-.8-.3-3.7-1.4-3.5-1.3-.1-.1-.1-.1-.3-.1-21-7.9-43.5-10-65.8-11.4zm-2.7-79.1c31.1 1.8 51 4.7 70.6 11.9.1.1.1.1.3.1-.2-.1 2.7 1 3.5 1.3 3.3 1.2 5.6 2.3 7.7 3.6.8.5 1.4 1.5 1.4 2.4v45.9c0 2.1-2.2 3.5-4.1 2.6-6.4-3-11.6-4.9-16.9-6.3-.8-.2-1.7-.5-2.8-.8-.6-.2-1-.3-2.8-.8h-.1c-18.6-4.9-37.9-6.7-57-8.1-1.5-.1-2.7-1.3-2.7-2.9V78.3c-.2-1.6 1.2-2.9 2.9-2.8zm2.7 5.9v40.4c18.8.7 37.2 4 55.5 8.1 1.8.5 2.2.6 2.8.8 1.1.3 2 .6 2.8.8 4.7 1.2 9.3 2.8 13.8 4.8V96.6c-2.8-1.5-1-.6-5.3-2.4-.8-.3-3.7-1.4-3.5-1.3-.1-.1-.1-.1-.3-.1-21-7.9-43.5-10-65.8-11.4zm188.8-64.1C205 27 180.2 39 159.2 56.1c-9.1 7.4-19.6 16.7-21.3 29v158.4c22.8-29.3 58.3-46.2 92.2-59.2v-167zM216 121.2c2.6 1.7 2 .6 2.6 2.9v50.6c0 1.1-.7 2.2-1.7 2.6-.8.4-1.5.7-3 1.3-.1 0-.1 0-.2.1-9.3 4.2-13.5 6.1-18.6 8.5-21.2 10.4-31.3 16.5-40.8 26.1-1.8 1.8-4.9.6-4.9-2V163c0-.8.3-1.5.8-2 16.6-16.6 34.2-26.9 64.3-39.5l1.5-.3zm-3.2 7.3c-21.3 8.5-41 20-57.7 35.8v40.4c11-9.8 24.4-16.2 37.5-22.7 5.2-2.4 9.5-4.3 18.8-8.5.1 0 .1 0 .2-.1l1.3-.6v-44.3zm3.2-79.3c2.6 1.7 2 .6 2.6 2.9v50.6c0 1.1-.7 2.2-1.7 2.6-.8.4-1.5.7-3 1.3-.1 0-.1 0-.2.1-9.3 4.2-13.5 6.1-18.6 8.5-21.2 10.4-31.3 16.5-40.8 26.1-1.8 1.8-4.9.6-4.9-2V91c0-.8.3-1.5.8-2 16.6-16.6 34.2-26.9 64.3-39.5l1.5-.3zm-3.2 7.2c-21.3 8.5-41 20-57.7 35.8v40.4c11-9.8 24.4-16.2 37.5-22.7 5.2-2.4 9.5-4.3 18.8-8.5.1 0 .1 0 .2-.1l1.3-.6V56.4zm34.6-2.9c-2.4 0-4.9.1-7.3.1-.7 0-1.2 0-2.2.1-1.2.1-.5 0-2.1.1v132.4c0 1.2-.8 2.3-1.9 2.7-30.3 11-59.1 26.1-83 47.8 7.7-3.7 15.9-5.7 24.1-7.8 23.6-6 48.1-7.8 72.4-8.2V53.5z" transform="translate(-7.5 -6.509)"/></g></svg>