<svg id="Layer_1" xmlns="http://www.w3.org/2000/svg" viewBox="0 0 133.3 43.2"><style>.st0{fill:#656565}.st1{fill:#8068ae}</style><g id="logo_5_"><path class="st0" d="M31.1 39.9c0 .1 0 .2-.1.3 0 .1-.1.2-.1.4-.1.1-.1.2-.2.4l-.3.3c-.1.1-.3.2-.5.2-.2.1-.4.1-.6.1h-.4c-.1 0-.3-.1-.4-.2-.1-.1-.3-.2-.4-.3-.1-.1-.2-.3-.3-.4-.1-.2-.2-.4-.2-.6-.1-.2-.1-.5-.1-.8 0-.4.1-.7.2-1 .1-.3.2-.5.4-.7.2-.2.4-.4.6-.5.1-.1.3-.1.6-.1.2 0 .4 0 .6.1.2 0 .3.1.5.2l.3.3c.1.1.2.2.2.3.1.1.1.2.1.4 0 .1 0 .2.1.3h-.7c0-.3-.1-.5-.3-.7s-.4-.3-.7-.3c-.2 0-.4 0-.5.1-.2.1-.3.2-.4.4-.1.1-.2.3-.2.5s-.1.4-.1.7c0 .3 0 .5.1.7.1.2.1.4.2.5.1.1.2.2.4.3.1.1.3.1.5.1.1 0 .3 0 .4-.1.1 0 .2-.1.3-.2.1-.1.2-.2.2-.3.1-.1.1-.3.1-.4h.7zm.9-1.5c0-.3.1-.5.1-.7.1-.2.2-.3.4-.4.2-.1.3-.2.6-.2.2 0 .4-.1.7-.1.2 0 .4 0 .6.1.2 0 .4.1.5.2.2.1.3.2.4.4.1.2.1.3.1.6v2.5c0 .1 0 .1.1.2 0 0 .1.1.2.1h.2v.5h-.7c-.1 0-.2-.1-.2-.1-.1-.1-.1-.1-.1-.2s-.1-.2-.1-.3l-.3.3c-.1.1-.2.2-.3.2-.1.1-.3.1-.4.1-.2 0-.3.1-.5.1s-.3 0-.5-.1-.3-.1-.4-.2c-.1-.1-.2-.2-.3-.4-.1-.2-.1-.3-.1-.5s0-.4.1-.6c.1-.2.2-.3.3-.4.1-.1.3-.2.4-.3.2-.1.3-.1.5-.1l1.2-.1c.1 0 .2-.1.3-.1.1-.1.1-.2.1-.4 0-.3-.1-.4-.3-.6-.2-.1-.4-.2-.7-.2-.3 0-.6.1-.7.2-.2.1-.3.3-.3.6H32zm2.6.8c-.1 0-.1.1-.2.1s-.2.1-.3.1c-.1 0-.2 0-.3.1h-.4c-.1 0-.3 0-.4.1-.1 0-.2.1-.3.1l-.2.2c0 .1-.1.2-.1.3 0 .1 0 .2.1.3 0 .1.1.2.2.2.1.1.2.1.2.1h.6c.1 0 .2 0 .3-.1.1 0 .2-.1.3-.1.1-.1.2-.1.3-.2.1-.1.1-.2.2-.3 0-.1.1-.2.1-.3v-.6zm5.1-1.5H38v1c0 .5-.1 1-.1 1.3-.1.4-.2.6-.3.8-.1.2-.2.4-.4.5-.2.1-.3.1-.5.1h-.2c-.1 0-.1 0-.1-.1v-.7c.1 0 .2.1.3.1h.2c.1 0 .1-.1.1-.1 0-.1.1-.1.1-.2s.1-.2.1-.4.1-.4.1-.6V37h3.1v4.3h-.7v-3.6zm5.7 1.6c0 .4 0 .7-.1 1-.1.3-.2.5-.4.7-.2.2-.4.4-.6.5-.2.1-.5.2-.8.2s-.6-.1-.8-.2c-.2-.1-.5-.3-.6-.5-.2-.2-.3-.4-.4-.7-.1-.3-.1-.6-.1-1s0-.7.1-1c.1-.3.2-.5.4-.7.2-.2.4-.4.6-.5.2-.1.5-.2.8-.2s.6.1.8.2c.2.1.5.3.6.5.2.2.3.4.4.7.1.3.1.6.1 1zm-.7 0c0-.2 0-.5-.1-.7-.1-.2-.1-.4-.2-.5-.1-.1-.2-.3-.4-.3-.2-.1-.3-.1-.5-.1s-.4 0-.5.1c-.2.1-.3.2-.4.3-.1.1-.2.3-.2.5-.1.2-.1.4-.1.7 0 .2 0 .5.1.7.1.2.1.4.2.5.1.1.2.3.4.3.2.1.3.1.5.1s.4 0 .5-.1c.2-.1.3-.2.4-.3.1-.1.2-.3.2-.5.1-.3.1-.5.1-.7zm1.7-2.2h.7v1.7h2v-1.7h.9v4.3h-.7v-1.9h-2v1.9h-.7v-4.3zm9.9 2.6c-.2 0-.3.1-.5.1h-.5c-.6 0-1-.1-1.3-.3-.3-.2-.4-.6-.4-1.1V37h.7v1.2c0 .2 0 .3.1.4 0 .1.1.2.2.3.1.1.2.1.4.2.1 0 .3.1.5.1h.4c.1 0 .2 0 .2-.1.1 0 .1 0 .2-.1v-2h.7v4.3h-.7v-1.6zm2-1.3c0-.3.1-.5.1-.7.1-.2.2-.3.4-.4.2-.1.3-.2.6-.2.2 0 .4-.1.7-.1.2 0 .4 0 .6.1.2 0 .4.1.5.2.2.1.3.2.4.4.1.2.1.3.1.6v2.5c0 .1 0 .1.1.2 0 0 .1.1.2.1h.2v.5h-.7c-.1 0-.2-.1-.2-.1-.1-.1-.1-.1-.1-.2s-.1-.2-.1-.3l-.3.3c-.1.1-.2.2-.3.2-.1.1-.3.1-.4.1-.2 0-.3.1-.5.1s-.3 0-.5-.1-.3-.1-.4-.2c-.1-.1-.2-.2-.3-.4-.1-.2-.1-.3-.1-.5s0-.4.1-.6c.1-.2.2-.3.3-.4.1-.1.3-.2.4-.3.2-.1.3-.1.5-.1l1.2-.1c.1 0 .2-.1.3-.1.1-.1.1-.2.1-.4 0-.3-.1-.4-.3-.6-.2-.1-.4-.2-.7-.2-.3 0-.6.1-.7.2-.2.1-.3.3-.3.6h-.9zm2.7.8c-.1 0-.1.1-.2.1s-.2.1-.3.1c-.1 0-.2 0-.3.1h-.4c-.1 0-.3 0-.4.1-.1 0-.2.1-.3.1l-.2.2c0 .1-.1.2-.1.3 0 .1 0 .2.1.3 0 .1.1.2.2.2.1.1.2.1.2.1h.6c.1 0 .2 0 .3-.1.1 0 .2-.1.3-.1s.2-.1.3-.2c.1-.1.1-.2.2-.3 0-.1.1-.2.1-.3v-.6zm5.5.7c0 .1 0 .2-.1.3 0 .1-.1.2-.1.4-.1.1-.1.2-.2.4l-.3.3c-.1.1-.3.2-.5.2-.2.1-.4.1-.6.1h-.4c-.1 0-.3-.1-.4-.2-.1-.1-.3-.2-.4-.3-.1-.1-.2-.3-.3-.4-.1-.2-.2-.4-.2-.6-.1-.2-.1-.5-.1-.8 0-.4.1-.7.2-1 .1-.3.2-.5.4-.7.2-.2.4-.4.6-.5.2-.1.5-.2.7-.2.2 0 .4 0 .6.1.2 0 .3.1.5.2l.3.3c.1.1.2.2.2.3.1.1.1.2.1.4 0 .1 0 .2.1.3h-.7c0-.3-.1-.5-.3-.7s-.4-.3-.7-.3c-.2 0-.4 0-.5.1-.2.1-.3.2-.4.4-.1.1-.2.3-.2.5s-.1.4-.1.7c0 .3 0 .5.1.7.1.2.1.4.2.5.1.1.2.2.4.3.1.1.3.1.5.1.1 0 .3 0 .4-.1.1 0 .2-.1.3-.2.1-.1.2-.2.2-.3.1-.1.1-.3.1-.4h.6zm4.7-.6c0 .4 0 .7-.1 1-.1.3-.2.5-.4.7-.2.2-.4.4-.6.5-.2.1-.5.2-.8.2s-.6-.1-.8-.2-.5-.3-.6-.5c-.2-.2-.3-.4-.4-.7-.1-.3-.1-.6-.1-1s0-.7.1-1c.1-.3.2-.5.4-.7.2-.2.4-.4.6-.5.2-.1.5-.2.8-.2s.6.1.8.2c.2.1.5.3.6.5.2.2.3.4.4.7 0 .3.1.6.1 1zm-.8 0c0-.2 0-.5-.1-.7-.1-.2-.1-.4-.2-.5-.1-.1-.2-.3-.4-.3-.2-.1-.3-.1-.5-.1s-.4 0-.5.1c-.2.1-.3.2-.4.3-.1.1-.2.3-.2.5-.1.2-.1.4-.1.7 0 .2 0 .5.1.7.1.2.1.4.2.5.1.1.2.3.4.3.2.1.3.1.5.1s.4 0 .5-.1c.2-.1.3-.2.4-.3.1-.1.2-.3.2-.5.1-.3.1-.5.1-.7zm1.8-2.2H74c.5 0 .9.1 1.2.3s.4.5.4.9c0 .2 0 .4-.1.5-.1.1-.2.3-.4.4.2.1.4.2.5.4.1.2.2.4.2.6 0 .2 0 .4-.1.5-.1.2-.2.3-.3.4-.1.1-.3.2-.5.3-.2.1-.5.1-.8.1h-2v-4.4zm.7 1.8H74c.3 0 .4-.1.6-.1.1-.1.2-.3.2-.5 0-.1 0-.2-.1-.3 0-.1-.1-.1-.2-.2-.1 0-.1-.1-.2-.1h-1.5v1.2zm0 1.9h1.6c.1 0 .2-.1.3-.1l.2-.2v-.6c0-.1-.1-.2-.2-.2-.1-.1-.2-.1-.3-.1h-1.6v1.2zm7.8-1.5c0 .4 0 .7-.1 1-.1.3-.2.5-.4.7-.2.2-.4.4-.6.5-.2.1-.5.2-.8.2s-.6-.1-.8-.2-.5-.3-.6-.5c-.2-.2-.3-.4-.4-.7-.1-.3-.1-.6-.1-1s0-.7.1-1c.1-.3.2-.5.4-.7.2-.2.4-.4.6-.5.2-.1.5-.2.8-.2s.6.1.8.2c.2.1.5.3.6.5.2.2.3.4.4.7 0 .3.1.6.1 1zm-.8 0c0-.2 0-.5-.1-.7-.1-.2-.1-.4-.2-.5-.1-.1-.2-.3-.4-.3-.2-.1-.3-.1-.5-.1s-.4 0-.5.1c-.2.1-.3.2-.4.3-.1.1-.2.3-.2.5-.1.2-.1.4-.1.7 0 .2 0 .5.1.7.1.2.1.4.2.5.1.1.2.3.4.3.2.1.3.1.5.1s.4 0 .5-.1c.2-.1.3-.2.4-.3.1-.1.2-.3.2-.5.1-.3.1-.5.1-.7zm1.8-2.2h2.7v.6h-1.9v3.7h-.7v-4.3zm7.2 2.2c0 .4 0 .7-.1 1-.1.3-.2.5-.4.7-.2.2-.4.4-.6.5-.2.1-.5.2-.8.2s-.6-.1-.8-.2c-.2-.1-.5-.3-.6-.5-.2-.2-.3-.4-.4-.7-.1-.3-.1-.6-.1-1s0-.7.1-1c.1-.3.2-.5.4-.7.2-.2.4-.4.6-.5.2-.1.5-.2.8-.2s.6.1.8.2c.2.1.5.3.6.5.2.2.3.4.4.7.1.3.1.6.1 1zm-.7 0c0-.2 0-.5-.1-.7-.1-.2-.1-.4-.2-.5-.1-.1-.2-.3-.4-.3-.2-.1-.3-.1-.5-.1s-.4 0-.5.1c-.2.1-.3.2-.4.3-.1.1-.2.3-.2.5-.1.2-.1.4-.1.7 0 .2 0 .5.1.7.1.2.1.4.2.5.1.1.2.3.4.3.2.1.3.1.5.1s.4 0 .5-.1c.2-.1.3-.2.4-.3.1-.1.2-.3.2-.5.1-.3.1-.5.1-.7zm4.2-2.2h.7v3.3l2.1-3.3h.9v4.3h-.7v-3.3l-2.1 3.3h-.9v-4.3zm8.4 2.8c0 .1 0 .2-.1.3 0 .1-.1.2-.1.4-.1.1-.1.2-.2.4l-.3.3c-.1.1-.3.2-.5.2-.2.1-.4.1-.6.1h-.4c-.1 0-.3-.1-.4-.2-.1-.1-.3-.2-.4-.3-.1-.1-.2-.3-.3-.4-.1-.2-.2-.4-.2-.6-.1-.2-.1-.5-.1-.8 0-.4.1-.7.2-1 .1-.3.2-.5.4-.7.2-.2.4-.4.6-.5.2-.1.5-.2.7-.2.2 0 .4 0 .6.1.2 0 .3.1.5.2l.3.3c.1.1.2.2.2.3.1.1.1.2.1.4 0 .1 0 .2.1.3h-.7c0-.3-.1-.5-.3-.7s-.4-.3-.7-.3c-.2 0-.4 0-.5.1-.2.1-.3.2-.4.4-.1.1-.2.3-.2.5s-.1.4-.1.7c0 .3 0 .5.1.7.1.2.1.4.2.5.1.1.2.2.4.3.1.1.3.1.5.1.1 0 .3 0 .4-.1.1 0 .2-.1.3-.2.1-.1.2-.2.2-.3.1-.1.1-.3.1-.4h.6zm.9-2.8h.7v2.1l2.2-2.1h1l-2 1.9 2.1 2.4h-1l-1.7-2-.5.5v1.5h-.7v-4.3zm4.3 0h.8l1.2 3.5 1.2-3.5h.8l-1.7 4.5c-.1.2-.2.4-.2.6-.1.2-.1.3-.2.4-.1.1-.1.2-.2.3l-.2.2c-.1 0-.2.1-.3.1h-.9v-.7h.4c.1 0 .2 0 .3-.1.1-.1.2-.2.2-.3l.2-.6-1.4-4.4zm8.2 2.8c0 .1 0 .2-.1.3 0 .1-.1.2-.1.4-.1.1-.1.2-.2.4l-.3.3c-.1.1-.3.2-.5.2-.2.1-.4.1-.6.1h-.4c-.1 0-.3-.1-.4-.2-.1-.1-.3-.2-.4-.3-.1-.1-.2-.3-.3-.4-.1-.2-.2-.4-.2-.6-.1-.2-.1-.5-.1-.8 0-.4.1-.7.2-1 .1-.3.2-.5.4-.7.2-.2.4-.4.6-.5.2-.1.5-.2.7-.2.2 0 .4 0 .6.1.2 0 .3.1.5.2l.3.3c.1.1.2.2.2.3.1.1.1.2.1.4 0 .1 0 .2.1.3h-.7c0-.3-.1-.5-.3-.7s-.4-.3-.7-.3c-.2 0-.4 0-.5.1-.2.1-.3.2-.4.4-.1.1-.2.3-.2.5s-.1.4-.1.7c0 .3 0 .5.1.7.1.2.1.4.2.5.1.1.2.2.4.3.1.1.3.1.5.1.1 0 .3 0 .4-.1.1 0 .2-.1.3-.2.1-.1.2-.2.2-.3.1-.1.1-.3.1-.4h.6zm4.3 0c0 .1 0 .2-.1.3 0 .1-.1.2-.1.4-.1.1-.1.2-.2.4l-.3.3c-.1.1-.3.2-.5.2-.2.1-.4.1-.6.1h-.4c-.1 0-.3-.1-.4-.2-.1-.1-.3-.2-.4-.3-.1-.1-.2-.3-.3-.4-.1-.2-.2-.4-.2-.6-.1-.2-.1-.5-.1-.8 0-.4.1-.7.2-1 .1-.3.2-.5.4-.7.2-.2.4-.4.6-.5.2-.1.5-.2.7-.2.2 0 .4 0 .6.1.2 0 .3.1.5.2l.3.3c.1.1.2.2.2.3.1.1.1.2.1.4 0 .1 0 .2.1.3h-.7c0-.3-.1-.5-.3-.7s-.4-.3-.7-.3c-.2 0-.4 0-.5.1-.2.1-.3.2-.4.4-.1.1-.2.3-.2.5s-.1.4-.1.7c0 .3 0 .5.1.7.1.2.1.4.2.5.1.1.2.2.4.3.1.1.3.1.5.1.1 0 .3 0 .4-.1.1 0 .2-.1.3-.2.1-.1.2-.2.2-.3.1-.1.1-.3.1-.4h.6zm2-2.2H119v-.6h3.7v.6h-1.5v3.7h-.7v-3.7zm3.2-.6h1.8c.5 0 .9.1 1.2.3.3.2.4.5.4.9 0 .2 0 .4-.1.5-.1.1-.2.3-.4.4.2.1.4.2.5.4.1.2.2.4.2.6 0 .2 0 .4-.1.5-.1.2-.2.3-.3.4-.1.1-.3.2-.5.3-.2.1-.5.1-.8.1h-2v-4.4zm.7 1.8h1.1c.3 0 .4-.1.6-.1.1-.1.2-.3.2-.5 0-.1 0-.2-.1-.3 0-.1-.1-.1-.2-.2-.1 0-.1-.1-.2-.1h-1.5v1.2zm0 1.9h1.6c.1 0 .2-.1.3-.1l.2-.2v-.6c0-.1-.1-.2-.2-.2-.1-.1-.2-.1-.3-.1h-1.6v1.2zm4-2.4c0-.3.1-.5.1-.7.1-.2.2-.3.4-.4.2-.1.3-.2.6-.2.2 0 .4-.1.7-.1.2 0 .4 0 .6.1.2 0 .4.1.5.2.2.1.3.2.4.4.1.2.1.3.1.6v2.5c0 .1 0 .1.1.2 0 0 .1.1.2.1h.2v.5h-.7c-.1 0-.2-.1-.2-.1-.1-.1-.1-.1-.1-.2s-.1-.2-.1-.3l-.3.3c-.1.1-.2.2-.3.2-.1.1-.3.1-.4.1-.2 0-.3.1-.5.1s-.3 0-.5-.1-.3-.1-.4-.2c-.1-.1-.2-.2-.3-.4-.1-.2-.1-.3-.1-.5s0-.4.1-.6c.1-.2.2-.3.3-.4.1-.1.3-.2.4-.3.2-.1.3-.1.5-.1l1.2-.1c.1 0 .2-.1.3-.1.1-.1.1-.2.1-.4 0-.3-.1-.4-.3-.6-.2-.1-.4-.2-.7-.2-.3 0-.6.1-.7.2-.2.1-.3.3-.3.6h-.9zm2.7.8c-.1 0-.1.1-.2.1s-.2.1-.3.1c-.1 0-.2 0-.3.1h-.4c-.1 0-.3 0-.4.1-.1 0-.2.1-.3.1l-.2.2c0 .1-.1.2-.1.3 0 .1 0 .2.1.3 0 .1.1.2.2.2.1.1.2.1.2.1h.6c.1 0 .2 0 .3-.1.1 0 .2-.1.3-.1.1-.1.2-.1.3-.2s.1-.2.2-.3c0-.1.1-.2.1-.3v-.6zm-85.6-9c-1.4 1.6-2.8 2.4-4.1 2.4-.8 0-1.8-.4-1.8-2 0-.5.1-1 .2-1.4v-.1h.1c3.3-.4 6.9-1.8 6.9-4 0-1.2-1.1-1.9-2.9-1.9-3.9 0-7.6 3.5-7.6 7.2 0 2 1.5 3.3 3.9 3.3 2.1 0 3.9-1 5.7-3l-.4-.5zm-5.4-1.8c.6-2.2 2.2-4.8 3.5-4.8.2 0 .8.1.8 1.1 0 1.5-1.7 3.5-4.2 3.8H40l.1-.1zm16.4 5.2c1.3 0 2.6-.8 3.9-2.5l-.4-.3c-.4.5-1.2 1.2-1.8 1.2-.2 0-.5-.1-.5-.5 0-.2 0-.3.1-.5l1.6-4.2c.2-.6.5-1.3.5-2 0-1.6-1.2-1.8-1.8-1.8-1.7 0-3.4 1.3-5.1 3.9v.1h-.4l.5-1.4c.1-.2.2-.8.2-1.1 0-.3-.1-1.4-1.7-1.4-1.3 0-2.6.8-3.9 2.5l.5.3c.6-.8 1.2-1.2 1.6-1.2.2 0 .5.1.5.5 0 .2 0 .3-.1.5l-2.5 7.7h2.8l.7-2.2c.6-1.3 3.6-6.2 5.1-6.2.2 0 .5.1.5.6 0 .2 0 .4-.1.6l-1.9 5c-.2.4-.2.8-.2 1.1.1 1.3 1.6 1.3 1.9 1.3zm13.3 0c1.3 0 2.6-.8 3.9-2.5l-.5-.3c-.3.5-1 1.2-1.6 1.2-.2 0-.5-.2-.5-.6 0-.1 0-.3.1-.4l2.5-7.7h-2.8l-.2.5-.1-.1c-.4-.5-.9-.6-1.7-.6-3.5 0-7.8 3.6-7.8 7.7 0 1.8 1 2.8 2.7 2.8 1.4 0 2.8-.8 4.3-2.6v-.1l.3.1v.1c0 .2-.2.7-.2 1.1 0 1.1.8 1.4 1.6 1.4zM65.4 32c-.8 0-1.1-.4-1.1-1.2 0-2.7 2.7-7.2 4.8-7.2.9 0 1.3.6 1.3 1.1 0 .2 0 .3-.1.5l-1 2.9c-.3 1-2.4 3.9-3.9 3.9zm16.3-8.9c-5.3 0-7.3 4-7.3 6.6 0 2.3 1.8 3.9 4.4 3.9 2.2 0 3.9-1 5.3-3.2l-.5-.3c-1.2 1.7-2.4 2.5-3.6 2.5-.5 0-2.3-.2-2.3-2.4 0-3.1 2-6.6 3.8-6.6 1 0 1 .7 1 1.4v.1c0 .5.2 1.1 1.1 1.1.8 0 1.4-.5 1.4-1.2 0-.9-.9-1.9-3.3-1.9zm10.7 0c-5.3 0-7.3 4-7.3 6.6 0 2.3 1.8 3.9 4.4 3.9 2.2 0 3.9-1 5.3-3.2l-.5-.3c-1.2 1.7-2.4 2.5-3.6 2.5-.5 0-2.3-.2-2.3-2.4 0-3.1 2-6.6 3.8-6.6 1 0 1 .7 1 1.4v.1c0 .5.2 1.1 1.1 1.1.8 0 1.4-.5 1.4-1.2 0-.9-.9-1.9-3.3-1.9zm12.1 10.5c1.3 0 2.6-.8 3.9-2.5l-.5-.3c-.3.5-1 1.2-1.6 1.2-.2 0-.5-.2-.5-.6 0-.1 0-.3.1-.4l2.5-7.7h-2.8l-.2.5-.1-.1c-.4-.5-.9-.6-1.7-.6-3.5 0-7.8 3.6-7.8 7.7 0 1.8 1 2.8 2.7 2.8 1.4 0 2.8-.8 4.3-2.6v-.1l.2.1v.1c0 .2-.2.7-.2 1.1 0 1.1.9 1.4 1.7 1.4zm-4.4-1.6c-.8 0-1.1-.4-1.1-1.2 0-2.7 2.7-7.2 4.8-7.2.9 0 1.3.6 1.3 1.1 0 .2 0 .3-.1.5l-1 2.9c-.3 1-2.5 3.9-3.9 3.9zm32.2-7.4c0-.4-.2-1.4-1.9-1.4-2.9 0-5.4 1.9-6.4 4.6v.1h-1.8l1.5-4.5H121l-1.5 4.5h-1.9v-.1c.1-.5.2-1 .2-1.3 0-2.9-1.9-3.2-2.7-3.2-2.1 0-3.8 1.1-5 3.3l.6.3c1.4-2.3 2.7-2.6 3.2-2.6 1.2 0 1.2 1.5 1.2 2 0 4.2-2.1 7-3.5 7-.3 0-.6-.1-.6-.7V32c0-.1-.1-.7-.8-.7-.5 0-1.1.3-1.1.9 0 .4.2 1.4 1.9 1.4 3.1 0 5.7-2.1 6.5-5.2v-.1h1.9l-1.7 5h2.7l1.7-5h1.8l-.1.2c-.2.6-.3 1.2-.3 1.9 0 2.1 1 3.2 2.8 3.2 2.1 0 3.8-1.1 5-3.3l-.6-.3c-1.4 2.3-2.7 2.6-3.2 2.6-.8 0-1.3-.7-1.3-2 0-3.7 2-7 3.6-7 .3 0 .6.1.6.7v.4c0 .1.1.7.8.7.5 0 1.1-.3 1.1-.8zM2.5 39.9c1 .9 2.3 1.6 4.1 2 1.6.4 3.4.5 5.2.4 1.9-.1 3.9-.7 5.7-1.7.5-.3 1-.6 1.4-.9.2-.1.3-.2.4-.3l.2-.2c.2-.1.3-.2.4-.4l.2-.2c.7-.7 1.4-1.4 2.2-2.3 1.3-1.5 2.4-3.3 3.4-5.2.2-.4.4-.8.6-1.1l.1-.3.6-1.4c.3-.7.6-1.4.9-2v-.1h.1c.6.1 1.3.2 1.9.2 1.4 0 2.8-.2 4.2-.7 1.4-.5 2.7-1.3 3.8-2.3.3-.2.6-.5.9-.9.1-.1.2-.2.2-.3l.1-.1.2-.2.2-.2c.5-.7.9-1.3 1.2-2 .4-.7.7-1.6.9-2.3 0-.1.1-.2.1-.2.1-.1.1-.2.1-.4l.1-.7c.1-.4.1-.9.1-1.3 0-1.8-.6-3.7-1.6-5.2-.5-.7-1.1-1.3-1.8-1.9l-.1-.1.1-.1c.3-.4.7-.7 1-1 .6-.6 1.1-1.1 1.5-1.3l.5-.4c.4-.2.4-.5.3-.7-.1-.2-.5-.3-.7-.2l-.1.1-.5.3c-.6.3-1.2.7-1.8 1.1l-1.5 1.2-.1.1-.2-.1c-.2-.1-.4-.3-.6-.4-1.6-.8-3.3-1.3-5.1-1.5-.7-.1-1.4-.1-2-.1-2.7 0-5.4.5-8.4 1.5-3.3 1.1-6.4 2.8-9.1 5-3 2.3-5.2 5-6.4 7.9-.8 1.9-1.1 3.5-.9 5.1.1.9.5 1.8 1.1 2.5.3.3.7.8 1 .9.4.3.8.5 1.1.7.9.5 2 .7 3.1.7.6 0 1.1-.1 1.7-.2 1.4-.3 2.7-.8 4-1.6 2.1-1.3 3.8-3 5.3-5.1 1.3-1.8 1.8-3.6 2.1-5.2.3-1.5.4-2.6.5-3.5.1-.8.1-1.2.1-1.2 0-.2-.1-.4-.3-.4-.2-.1-.5.1-.5.3 0 0-.1.4-.3 1.1-.3 1-.7 2.1-1.1 3.2l-.1.2c-.2.6-.5 1.3-.8 1.9l-.6.6-.3.6c-.2.4-.5.8-.7 1.2-.8 1.3-2.3 3.1-4.6 4.5-1.1.7-2.2 1.2-3.2 1.4-1.3.3-2.5.2-3.5-.3-.1 0-.1-.1-.2-.1s-.2-.1-.2-.1-.1-.1-.2-.1c-.1-.1-.2-.1-.2-.2-.3-.2-.4-.3-.6-.5l-.1-.1c-.4-.5-.6-1-.7-1.6-.2-1.4.3-3 .7-4 .6-1.3 1.4-2.6 2.4-3.8.5-.6 1-1.2 1.6-1.7.3-.3.6-.5.9-.8l1-.8c2.6-2 5.6-3.6 8.5-4.6 1.6-.6 3.2-.9 4.7-1.1.7-.1 1.5-.2 2.4-.2h.6l.9.1c.3 0 .6.1.9.1 1.5.2 3 .7 4.3 1.5l.1.1-.1.1c-.7.7-1.2 1.3-1.8 2-.9 1-1.8 2.3-2.9 4-1 1.6-1.9 3.1-2.7 4.7l-.2.4-.1-.1c-.1-.1-.3-.1-.4-.2-.6-.2-1.2-.2-1.7-.1-.4.1-.8.3-1.1.5-.4.3-.7.7-.9 1.1-.2.5-.4 1-.4 1.6 0 .3.1.6.2.9l.1.2c0 .1.1.1.1.2v.1c.1.2.1.3.3.4.3.4.6.7 1 1l.1.1-.9 1.7-.7 1.3-.7 1.2c-.9 1.5-1.9 3.2-3.1 4.7-.6.8-1.1 1.4-1.7 2l-.2.2-.3.3-.2.2-.3.3c-.3.3-.6.5-.9.7-1.2.9-2.6 1.5-4.3 1.9-1.5.1-3 .2-4.5-.1-1.3-.2-2.5-.7-3.2-1.3l-.2-.2-.1-.2c0-.1-.1-.1-.1-.2-.2-.2-.3-.4-.4-.6l-.2-.4.3.1c.3.1.5.1.7.1 1 .1 1.7 0 2.1-.5.3-.3.5-.8.4-1.5 0-1.2-1.2-2.2-2.5-2.2-.4 0-.8.1-1.2.3-.1 0-.2.1-.3.1l-.1.1c-.6.6-.9 1.1-1 1.6-.2.5-.3 1-.2 1.6 0 .5.2 1 .5 1.7.1.1.1.2.2.3.1.2.2.4.3.5 0 .1.1.1.1.2l.2.2c0 .1.1.3.2.4zm26.6-15.8c.5-1 1.1-2.2 1.7-3.3.7-1.2 1.3-2.4 1.9-3.6l.9-1.7c.6-1.3 1.3-2.4 1.9-3.5.4-.7.9-1.4 1.5-2.2v-.1l.1.1c.5.5.9.9 1.2 1.4.7 1.1 1 2.4.9 3.6 0 .3 0 .5-.1.8v.1c0 .1 0 .2-.1.2-.1.2-.1.4-.1.7-.2.7-.5 1.3-.7 1.8-.3.5-.6 1-.9 1.4l-.4.6-.1.1c-.1.1-.1.2-.2.3-.1.2-.3.4-.6.6-.8.8-1.7 1.5-2.8 1.9-1.2.5-2.6.8-3.9.8H29h.1zm-4-2.4c.1-.2.2-.4.4-.5.1-.1.3-.3.5-.4.3-.2.7-.4 1.1-.4l.3-.1-.1.2-1.5 2.9-.1-.1-.3-.3-.1-.1.1-.1h-.1l-.3-.1c0-.1-.1-.2-.1-.3 0-.3.1-.5.2-.7z"/><path class="st1" d="M98.2.3l-.3-.3-3.8 3.4c-.2-.1-.4-.2-.6-.2-.7 0-1.3.6-1.3 1.3 0 .2 0 .3.1.5L80.1 16.2c-.7-.3-1.6-.2-2.2.3l-8.3-5c.1-.2.1-.3.1-.5 0-.8-.7-1.5-1.5-1.5-.4 0-.7.1-1 .4l-5.1-3.2-.2.3 4.9 3.5c-.1.2-.1.3-.1.5 0 .8.7 1.5 1.5 1.5.3 0 .7-.1.9-.3l8.1 5.7v.2c0 1.1.9 2 2 2s2-.9 2-2c0-.3-.1-.5-.2-.8L92.9 5.6c.2.1.4.1.6.1.7 0 1.3-.6 1.3-1.3 0-.2 0-.4-.1-.6L98.2.3zm-30 11.3c-.3 0-.6-.3-.6-.6s.3-.6.6-.6.6.3.6.6-.2.6-.6.6zM79.3 19c-.5 0-.9-.4-.9-.9s.4-.9.9-.9.9.4.9.9-.4.9-.9.9zM93.5 4.9c-.3 0-.5-.2-.5-.5 0-.2.2-.4.5-.4s.5.2.5.5c-.1.2-.3.4-.5.4z"/></g></svg>