<svg id="Layer_1" xmlns="http://www.w3.org/2000/svg" viewBox="0 0 338.6 173.5"><style>.st0{fill-rule:evenodd;clip-rule:evenodd}.st0,.st1{fill:#b0b0b0}</style><path class="st0" d="M317.6 36.1c3.2-4.4 6.4-8.8 9.7-13.1 2.1-2.7 4.4-5.5 6.4-8.3-.9-.6-2.2.1-3.2-.1-5.1 6.4-10.8 15.1-15.8 21-.6-1.7-2.3-2-3.6-2.1-4.6-.3-10.7 6.5-11.7 9.3-3.9 3.8-7.5 3.9-5.1.8 1-1.3 3.9-4.8 4.4-6.6.6-2.2-1.6-2.9-2.7-4.1-.6-.6.9-1.6-.5-2.8-.6-.5-2.1-.1-2.3.9-.2 1.1 1.4 1.8.8 2.6-1.3 1.8-2.4 3.5-3.8 5.4-2 2.6-4 5.3-6.8 7.1-.7.4-1.5 0-1.2-.9 1.7-4.2 4.5-7.2 7.6-10.9.2-.2.4-.6.2-.7-.2-.1-.8.2-1.2.1H287c-.4.6-1.1 1.4-1.6 1.2-.3-.1-.5-.5-.7-.7-4.4-4.2-12.3 4-13.7 7.5-1.3.9-2.5 2-3.7 2.9-.9.7-1.8 1.3-2.9 1.4-.6.1-.7-.8-.6-1.4.5-1.4 3.4-4.7 5.1-7.5 1.6-2.6 1.2-4.9-1.5-3.7-2.1 1-5.1 3.8-5.4 3.1-.5-1.1 4.3-5.3 4.7-6.8-1.1 0-2.1-.1-3 0-3 4.2-7.3 7.3-11.3 10-.3.2-1.1.4-1-.2.5-2.4 1.3-4.1.3-5.4-.8-1.1-3-1.8-5.8-.5-2.4 1-5.1 3.9-7.5 7-2.6 3.4-6.5 5.9-7.5 6-1.8.2 0-1.9 3.5-6.8 1.9-2.7 3.3-5.5 1.2-6.5-3.2-1.5-5.6 2.5-7.5 2.9 1.4-2.8 4.6-4.2 6.8-5.9 1.5-1 6.7-5.3 9.6-9.7 2.9-4.3 2.8-8.2-.6-6.4-5.7 4.2-9.5 10.1-13.6 15.5-1.5 2-2.7 3.6-4.5 5.3-2.1 2-4.9 3.5-7.4 5.1 2.7-6.6 1-9.4-2-9.3-4 .2-10.2 5-12 9.1l.4.2c2.8-3.6 6.3-7 9.2-8 4.4-1.4 7.2 1.8.6 9.1-3.6 3.9-8.7 7-12.3 5.8-5.1-1.8 2-13.1 3.7-15.9 8.4-1.9 16.7-4.3 23.4-10.7 1.8-1.7 6.1-8.1 3.4-9.3-.5-.2-1.5-.6-2.7-.3-10.9 2.7-20.3 10.2-27.9 19.6-3.9.1-7.6-.7-10-3.8-1.8-2.3-1.9-6.4-.2-8.5 5.9-7.3 14.9-8.3 24.3-8l.5-.4c-8.7-1.2-21.4.7-26.5 8.5-1.4 2.2-1.6 6 .1 8.3 2.6 3.7 7 4.5 11.2 4.8-3 5.1-6.2 14.7.7 16.6 8.4 2.3 14.8-6.9 21.6-10.3-.9 1-6.9 9.1-7.2 9.5 1.2.1 2.5-.2 3.6-.3.1-.1 2.6-3.8 5.7-7.1 4-4.2 7.3-6 8.2-5.4 1.2.9-1.7 3.9-3.8 7-2.4 3.6-2.7 5.5-1.2 6 1.8.7 3.3-.1 7.2-3.4.5-.4.6-.2.7.2.2.7.1 2.4 1.2 2.9 1 .5 2.4.6 4 0 3.3-1.1 4.5-2.5 6.6-4.2.3-.2.5-.6.8-.8.5-.4 1.1-.6 1.7-.9 1.9-1.1 3.6-2.1 5.5-3.6.3-.3.8 0 .6.4-2.4 3.6-5.1 6.8-7.8 10.3-3.1 3.9-6 8-9 11.8 1 .3 3 .2 3.5-.3 1.6-1.7 8.2-11.5 14.3-18.2 3.5-3.9 7.2-6.3 8.1-6.2.9 0-.4 1.8-4.4 7.3-.9 1.2-1.6 3.8 0 4.6 2.2 1 5.7-2.1 8-3.8.8-.6 0 2.5 1.3 3.2 2.8 1.6 5.4-.7 7.6-2 .5-.3.6 1.1 1.5 2.2 3.5 4.1 13.6-12 14.7-13.2 1.1.3 1.5.9 1.4 1.7-.1 1.8-3.2 4.7-4.7 7.3-1.7 2.8-.8 4.4.5 4.7 1.8.4 5-2 6.7-3.2.1 6 7 1.9 9.6.2.3 2.6 1.3 3.1 2.5 3.1 3-.1 7.7-6.1 9.9-9.6h-.7c-2 2.8-4.7 6.5-7.8 8.1-.9.5-1.8-.2-1.1-1.3 1.7-2.8 3.9-5.6 6-8.5zm-73.9-19.8c3.3-3.2 1.9.9.9 2.6-2.8 4.4-7.9 9.8-12.6 12.5 3.7-5.1 7.2-10.7 11.7-15.1zM219 18.4c1.1-.8 7.6-5 11.1-6.2.8-.3 1.4-.5 1.8-.4.6.2.2.8 0 1.7-.5 1.8-2.2 4.8-6.8 8.6-4.4 3.6-12 7.3-18.1 7.6 2.9-3.4 7.4-7.8 12-11.3zM250.5 38c-.4.9-2.5.2-3.1.7-.7.5-1.3 1.6-1.2 2.6 0 .6 1 1.4.5 1.8-3.7 3.5-6.2 4.3-7.5 3.8-1-.4-.7-2.3 2-5.9 1.1-1.6 7.8-9.3 9.8-6.3.2.4.2 1.6-.5 3.3zm29.1 5.4c-2.7 2.2-5.6 3.8-6.8 3.1-1.7-1 1-5.3 4.4-8.5 2-1.9 4.3-3.7 5.9-3.8 2.1 0 1.4 2.9.9 3.9-.9 2-2.6 3.8-4.4 5.3zm21.5 2.7c-.5-2.5 6-10 10-11.5 2.5-.9 3 .6 2.3 2.6-1.9 5.5-11.8 12-12.3 8.9z"/><path class="st1" d="M55.5 5.8V2.5h18v18h-18v-3.6c0-.2-.4-.4-.6-.7-.2.2-.6.4-.6.6-.1 1.6 0 3.2 0 4.8h20.6V3.7c0-.8-.1-1.7-.1-2.5H54.3v5.4c.8.2 1.2.1 1.2-.8z"/><path class="st1" d="M56 14.3c-.3-.2-.6-.3-.8-.4-1-.6-1.3-1.6-.9-2.7s1.3-1.3 2.4-1.3c.5 0 1.1.1 1.6.3.8.2 1.4.7 1.3 1.7-.1 1.4-.1 2.8 0 4.1.1 1.4-.1 2.5-1.8 2.7h6.8c-.5-.5-1.4-1-1.5-1.6-.2-1.5-.1-3-.1-4.4 1.4.1 2.7.3 3.9.2 3.1-.2 5.1-2.2 4.9-4.8-.2-1.9-1.6-3.9-3.9-4.1-3.3-.3-6.7-.1-9.9-.1.6.6 1.4 1 1.5 1.6.2 1.3.1 2.7.1 4.1-.8-.3-1.4-.5-2.1-.7-.8.1-1.5.1-2.2.2-1.7.2-2.5 1.3-2.4 2.9.1 1.4 1.4 2.5 3.1 2.3zm8.6-9.6c1.6-.1 3.2.7 3.7 2 .6 1.4.7 2.9-.4 4.1-1.1 1.3-2.6 1.4-4.1 1.2-.7-.1-.9-.5-.9-1.2.1-.8 0-1.6 0-2.4 0-.7.1-1.3 0-2-.2-1.3.6-1.7 1.7-1.7zm-52.2 32c-.2-1.8-1.5-3.2-3.7-3.4-2.9-.2-5.8-.1-8.7-.1 2.5.2 2.1 2 2.1 3.5V47c0 1.3.2 2.7-1.7 3h7v-.2c-.1-.1-.1-.1-.2-.1-1.6.2-2-.8-2-2.2C5.1 43.7 5 40 5 36.2c0-2.2.9-2.7 2.7-1.5.7.4 1.3 1.1 1.6 1.8 1.2 2.7 0 4.9-3.2 6 0 .2.1.3.1.5 1.1-.3 2.3-.4 3.4-.9 2-.9 3.1-3.2 2.8-5.4zm29.3 3.8c.5-.7 1.2-1.2 1.6-1.9 1.4-2.1.7-5-1.6-5.4-2.6-.5-5.3-.4-8-.5 0 .1-.1.3-.1.4 1.3 0 1.7.7 1.6 1.8 0 3.6 0 7.2-.1 10.8 0 .6-.7 1.1-1 1.6h5.1c-.5-.4-1.4-.7-1.4-1.1-.2-1.6-.1-3.1-.1-4.7 1.4-.4 2.2.1 2.9 1.3.6 1 1.4 1.9 2.1 2.9 1.5 1.9 3.5 1.9 5.6 1.6-2-.8-5.7-4.4-6.6-6.8zm-2.6 0c-1.1 0-1.6-.4-1.6-1.6.1-1.4 0-2.8 0-4.2 0-.9.4-1.2 1.2-1 1.3.2 2.3.8 2.6 2.1.4 1.5.4 2.9-.7 4.1-.3.3-1 .4-1.5.6zm12.2 6.7h4.9c-.4-.4-1.3-.8-1.3-1.3-.2-1.5-.1-3-.1-4.6 1.9-.1 1.9-.1 2.9 1.3.6.9 1.3 1.8 2 2.7 1.5 2.1 3.5 2.2 5.7 1.8-3.4-1.1-4.6-4.3-7-6.7.5-.4 1-.7 1.4-1.1 1.1-1.2 1.7-2.6 1.1-4.3-.6-1.7-2-2.3-3.7-2.3-.3 0-.5-.1-.8-.1h-5.7c1.1.3 1.6.8 1.6 1.9 0 3.5 0 7-.1 10.5.1.9-.6 1.6-.9 2.2zm3.4-12.5c-.1-1 .5-1.2 1.3-1.1 1.3.2 2.3.9 2.6 2.3.3 1.4.4 3-.9 3.9-.6.4-1.7.4-2.5.3-.2 0-.4-1-.4-1.6-.1-.6 0-1.2 0-1.7-.1-.6 0-1.3-.1-2.1zm57.8-1.7c-.2.9-.4 2-.6 3 1.7-2.5 4.3-1.1 6.5-1.8V46c0 1.5.7 3.4-1.7 3.9h7.4c-.5-.2-.6-.4-.8-.4-1.6.1-1.9-.8-1.9-2.2 0-3.3-.1-6.6-.1-9.8v-3.1c3.9-.3 4.9 0 6.1 2.1v-3.6c-4.8.1-9.7.1-14.9.1zM77.9 44.6c-.8 1.7-3.8 2.4-5.3 1.2-.2-.2-.5-.5-.5-.7v-5.2c1.8.5 3.9-.9 5 1.7.1-1.1.2-2 .3-2.8h-5.3v-5.1c1.8.7 4.1-1 5.3 1.9.1-1.1.2-2 .3-2.8h-9.8c1.4.2 1.6 1.1 1.6 2.2v10.1c0 1-.2 1.8-1.4 2.1 2.8.2 5.5.2 8.1.2 1.7 0 2.4-1.1 1.7-2.8zm-58.3-9.4v9.7c0 1 .1 2.1-1.4 2.4 2.7.2 5.2.2 7.8.2 2.2 0 2.6-.5 2.2-2.8-.1 0-.2.1-.2.1-.7 1.6-4.1 2.2-5.4.9-.2-.1-.3-.4-.3-.6v-5.3c1.8.6 3.9-.9 5 1.9.1-1.3.2-2.2.3-3h-5.2v-5.1c1.8.7 4.1-1 5.3 2.1.1-1.3.2-2.2.2-3H17.7c1.9.8 1.9.8 1.9 2.5zm88.1 9.4l-.3.3c-.7 1.5-4.1 2.1-5.3.9-.2-.2-.4-.5-.4-.7V40c1.8.5 3.9-.8 5 1.7.1-1.1.2-2 .2-2.8h-5.3v-5.1c1.9.6 4.1-1.1 5.4 1.9.1-1.2.2-2.1.3-2.9h-9.8c1.2.2 1.7.9 1.6 2.1v10.3c0 1-.2 1.9-1.5 2.1.3.1.5.2.7.2 2.4 0 4.8.1 7.2.1 2.3-.1 2.6-.6 2.2-3zM93 44.4c-.4 2-1.8 1.9-3.2 1.8-2 0-2.3-.3-2.3-2.3v-8.6c0-1.2 0-2.3 1.6-2.5h-5.5c1.4.1 1.5 1.1 1.5 2.2v10.2c0 .9-.2 1.8-1.4 2.1 2.6.2 5.1.2 7.6.2 1.8-.1 2.5-1.1 1.7-3.1zM72 17.5c0-1-.9-1.9-1.9-1.9-1 0-2 1-1.9 2 0 1 1 1.9 2 1.9 1-.1 1.8-1 1.8-2zm-6.3 40.9c1.3-1.7 1.3-4.1 2.7-5.8-3.1-.7-4.1-.4-3.9 1 .8-.1 1.7-.2 2.7-.4-.8 1.8-1.4 3.3-2.1 4.8.1.2.4.3.6.4zm4.1-.2c1.1-.2 2.5-2.9 3.2-5.7-3-.6-3.8-.3-3.7 1.1.8-.1 1.7-.2 2.7-.4-.5 1.1-.9 1.8-1.2 2.6-.4.8-.7 1.5-1 2.4zm-9-5.9c-1.3 0-1.3.1-1.1 1.2.8-.1 1.6-.2 2.6-.3-.8 1.8-1.4 3.3-2.1 4.8l.6.3c1.5-1.6 1.4-4.1 3.1-6h-3.1zm-3.7-.1c-.8.5-1.5 1-2.1 1.4 0 .1.1.1.1.2h1.1c-.1 1.5-.3 2.9-.4 4.4h2c-1.1-1.9-.2-4-.7-6zm52 14.7c-.4-.9-.8-1.6-1.2-2.5-.4.9-.6 1.6-1 2.6-.8-2.4-.8-2.4-1.5-2.4.4 1.2.8 2.3 1.3 3.7.5-1.1.8-1.8 1.2-2.7.4.9.7 1.6 1.2 2.7.5-1.4.9-2.6 1.3-3.8-.1 0-.2-.1-.4-.1-.3.8-.5 1.6-.9 2.5zm-77-1.5c-.5-.3-1.1-.4-1.8-.5-.2 2.8-.2 3 .5 3.2 0-.4.1-.8.1-1.3.7.5 1.2 1 1.8 1.4.1-.1.1-.2.2-.2-.3-.4-.7-.8-.9-1 .1-.7.3-1.4.1-1.6zm51.8 1.8c-.4-.8-.8-1.5-1.1-2.1-.1 0-.2.1-.3.1-.1 1-.3 2-.4 3 .1 0 .2 0 .3.1.1-.5.3-1.1.4-1.7.4.6.6 1.1 1 1.7.4-.6.7-1.1 1.1-1.6.2.7.4 1.2.6 1.8.1-.1.3-.1.4-.2-.2-1-.4-1.9-.6-3.2-.6.7-1 1.4-1.4 2.1zm42.8-2.1c0 .4 0 .8-.1 1.2h-1.4c-.2-.5-.3-.9-.5-1.3-.1 0-.2.1-.3.1v3.1c.1 0 .2.1.4.1.1-.5.3-1 .4-1.6h1.3c.2.6.3 1.1.5 1.5.1 0 .2-.1.4-.1-.2-2.8-.2-2.8-.7-3zm-72.1 1.2h-1.4c-.1-.5-.2-.9-.2-1.3h-.4v3.1c.1 0 .2.1.3.1.1-.5.2-1 .4-1.6h1.2c.7.4-.3 1.5.9 1.5V65c-.1 0-.2-.1-.3-.1-.2.5-.4 1-.5 1.4zm8.9 1.8c.1.1.3.2.4.4 0-.2 0-.4.1-.5.2-.4.5-.7.8-1 .4.3.7.6 1.1.9.2.2.5.3 1 .7-.7-1.6-1.2-2.8-1.8-4.3-.6 1.4-1.1 2.6-1.6 3.8zm-25-3.1c-1.2 0-1.9.6-1.8 1.6.1 1 .7 1.6 1.7 1.6s1.9-.8 1.9-1.7c-.1-1-.8-1.5-1.8-1.5zm1 1.7c-.1.5-.6.9-1 1.3-.5-.4-.9-.8-1.7-1.5.7-.6 1.1-1.1 1.5-1.2 1-.1 1.4.6 1.2 1.4zm38.4-1.5c-.5.3-.9 1.3-.9 1.9.1 1 1 1.3 2.2.9 1.2-.2 1.4-1 1.2-2.1-.3-.8-1.6-1.3-2.5-.7zm1.3 2.8c-.9.1-1.4-.3-1.6-1.2-.1-.7-.1-1.5.8-1.4.5 0 1.1.7 1.2 1.2.2.3-.2.9-.4 1.4zm-53.4-2.8c-.9.3-1.1 1.2-.7 2.1.5 1 1.3 1.3 2.2.7 1.2-.3 1.4-1.3.9-2.2-.4-1.1-1.5-.9-2.4-.6zm1.5 2.8c-1.1.1-1.7-.4-1.7-1.4 0-.4.5-.8.8-1.3.4.3 1.1.6 1.2 1 .2.5-.1 1.1-.3 1.7zm-8.8-.9c-.7-.8-1.3-1.5-1.9-2.2-.2.1-.3.2-.5.2-.1 1-.1 2-.2 3h.4v-2.2c.9.9 1.6 1.5 2.5 2.3.1-1.3.1-2.2.2-3.2h-.4c-.1.7-.1 1.3-.1 2.1zM5.4 67c-.1.1-.3.2-.4.2-.5-.7-1.1-1.5-1.6-2.2-.1.1-.2.1-.3.2v3h.2V66c.9.9 1.6 1.5 2.5 2.4v-3.3h-.2c-.1.6-.1 1.2-.2 1.9zm106 1.1c.1.3.1.5.2.8.8-3.5 1.7-.9 2.8-.6-.6-1.3-1-2.3-1.6-3.5-.5 1.3-.9 2.3-1.4 3.3zm-24 0c.1.3.2.6.2.9.7-3.7 1.7-.7 2.7-.7-.5-1.2-1-2.2-1.6-3.4-.4 1.2-.9 2.2-1.3 3.2zm-29.6-3v3h1.6c-.3-.3-.9-.5-.9-.7 0-.3.4-.6.6-.9-.1-.1-.4-.4-.7-.6.3-.3.6-.5.9-.8h-1.5zm12.8 2c-.1.3-.6.6-.8.8-.2-.3-.6-.5-.7-.8-.1-.7 0-1.3 0-2h-.5c-.5.8-.4 1.7 0 2.5.2.4 1.1.7 1.6.6.9-.1 1.1-1.5.4-3 0 .6.1 1.3 0 1.9zm51.7-1.8c-.9-.3-1.9-.6-2.5.4-.3.5-.1 1.5.2 2 .6.7 1.5.7 2.3.4-.7-.3-1.5-.4-1.9-.8-.3-.3-.3-1.4 0-1.6.5-.3 1.3-.3 1.9-.4zm-22.9.5c.5-.4 1.2-.4 1.7-.5-.8-.4-2-.4-2.3.4-.2.6-.2 1.5.1 2 .5.8 1.5.8 2.3.5-.6-.3-1.4-.4-1.8-.8-.2-.4-.3-1.4 0-1.6zm-56.1-.7h-1.2c-.3 2.7-.2 2.9.6 3v-1.4c.3 0 .7-.1.9-.1-.3-.3-.6-.5-.9-.8.3-.2.6-.5.9-.7h-.3zm-22.5 0v.2c.3 0 .6.1 1 .1v2.7c.2 0 .3.1.5.1.4-.9-.1-2 .3-2.9.3 0 .6-.1.9-.1v-.1h-2.7zm71 0c.2.4.5.7.6 1.1.1.5 0 1 0 1.4 0 .2.3.4.5.6.1 0 .2-.1.3-.1v-2.7c.4 0 .7-.1 1-.1v-.2h-2.4zm-43.7 0c1.8.4 0 2.5 1.4 3.3v-2.9c.4-.1.7-.1 1.1-.2v-.2h-2.5zm-34.4 1.4c-.2-.2-.5-.4-.7-.7.3-.2.6-.5.9-.7h-1.5v3H14c-.3-.3-.6-.6-1-.8.2-.3.5-.6.7-.8zm-4.3.5c-.9-.4-.4-1.9-1.8-2 .5 1.1 1 2.1 1.5 3.3.6-1.2 1-2.2 1.4-3.2-.1-.1-.2-.1-.3-.2-.3.8-.6 1.4-.8 2.1zm105.9-1.9v.1c.4.1.7.1 1.1.2v2.7c.1 0 .3.1.4.1.8-.8-.1-2 .4-2.9.3-.1.5-.1.8-.2V65c-.9.1-1.8.1-2.7.1zm-42.5 0v.2c.3 0 .7.1 1 .1.4 1-.3 2.1.3 2.9.1 0 .3-.1.4-.1v-2.7c.4-.1.7-.1 1-.2v-.1c-1-.1-1.9-.1-2.7-.1zm23.6 3v-3.4c-.8 1.5-.6 3.2 0 3.4zM.2 64.5c-.3 3.5-.3 3.5.5 3.6-.2-1.2.2-2.5-.5-3.6zM198 153.9c.7-.4 1.2-.8 1.6-1.3.3-.5.5-1.1.5-1.8 0-1.2-.5-2.2-1.4-2.8-1-.7-2.3-1-4-1h-10.3v.4c.3.1.5.2.6.3.1.1.1.3.1.6V161c0 .3 0 .4-.1.6-.1.1-.3.2-.6.3v.4h9.9c2 0 3.5-.4 4.6-1.2 1.1-.8 1.6-1.9 1.6-3.3 0-.8-.2-1.6-.6-2.2-.4-.7-1-1.3-1.9-1.7zm-9.5-4.5h5.3c1.2 0 2 .1 2.4.4.5.2.7.7.7 1.3 0 .6-.2 1-.7 1.2-.4.3-1.1.4-2 .4h-5.8v-3.3zm7.9 9.6c-.6.3-1.6.5-3.1.5h-4.9v-4.1h5c1.4 0 2.4.2 3 .5.6.3.9.9.9 1.6 0 .7-.3 1.2-.9 1.5zm23.5 1.2l-3.2-4.5c1.4-.4 2.4-.9 3.1-1.7.7-.7 1-1.7 1-2.8 0-1.4-.5-2.5-1.6-3.2-1.1-.8-2.6-1.2-4.6-1.2h-9.5v.4c.3.1.5.2.6.3.1.1.1.3.1.6v12.7c0 .3 0 .5-.1.6-.1.1-.3.2-.6.3v.4h4.8v-.4c-.3-.1-.5-.1-.6-.3-.1-.1-.1-.3-.1-.6v-5h4.1l3.2 4.6c.1.1.2.3.2.4.1.2.1.3.1.3 0 .1-.1.2-.2.3-.1.1-.3.1-.5.2v.4h5.6v-.4c-.5-.3-.9-.5-1.2-.7-.2-.1-.4-.4-.6-.7zm-6.1-6.5h-4.7v-4.2h4.6c1.5 0 2.5.2 3.1.5.6.3.9.8.9 1.6s-.3 1.3-.9 1.6c-.6.3-1.6.5-3 .5zm25.9 5.5c-.1.1-.3.1-.6.1h-9.7v-3.9h6.1c.3 0 .5 0 .6.1.1.1.2.3.2.6h.4v-3.8h-.4c-.1.3-.2.5-.3.6-.1.1-.3.1-.6.1h-6.1v-3.3h9.7c.2 0 .4 0 .5.1.1.1.2.3.2.6h.4v-4.1h-.4c-.1.3-.1.5-.2.6-.1.1-.3.1-.6.1h-13.6v.4c.3.1.5.2.6.3.1.1.1.3.1.6V161c0 .3 0 .4-.1.6-.1.1-.3.2-.6.3v.4h13.8c.3 0 .5 0 .6.1.1.1.2.3.3.6h.4v-4.1h-.4c-.1 0-.2.2-.3.3zm5.4-11.9c.3.1.5.1.6.2.1.1.1.3.1.6v12.7c0 .3 0 .5-.1.6-.1.1-.3.2-.6.3v.4h4.7v-.4c-.3-.1-.5-.2-.6-.3-.1-.1-.1-.3-.1-.6v-12.7c0-.3 0-.5.1-.6.1-.1.3-.2.6-.2v-.4h-4.7v.4zm14.3 2.3v11.3c0 .3-.1.5-.2.6-.1.1-.3.2-.6.3v.4h4.7v-.4c-.3-.1-.5-.1-.6-.2-.1-.1-.1-.3-.1-.6v-11.3h4.7c.3 0 .5 0 .6.1.1.1.2.3.3.6h.4v-4.1h-.4c-.1.3-.1.5-.2.6-.1.1-.3.1-.6.1h-12.7c-.3 0-.5 0-.6-.1-.1-.1-.2-.3-.3-.6h-.4v4.1h.4c.1-.3.1-.5.2-.6.1-.1.3-.1.6-.1h4.8zm27.3 9.6c-.1.1-.3.1-.6.1h-9.5v-11.2c0-.3 0-.5.1-.6.1-.1.3-.2.6-.3v-.4h-4.8v.4c.3.1.5.2.6.3.1.1.1.3.1.6v12.7c0 .3 0 .4-.1.6-.1.1-.3.2-.6.3v.4h13.6c.3 0 .5 0 .6.1.1.1.2.3.3.6h.4v-4.1h-.4c-.2.2-.3.4-.3.5zm4.2-11.9c.3.1.5.1.6.2.1.1.1.3.1.6v12.7c0 .3 0 .5-.1.6-.1.1-.3.2-.6.3v.4h4.7v-.4c-.3-.1-.5-.2-.6-.3-.1-.1-.1-.3-.1-.6v-12.7c0-.3 0-.5.1-.6.1-.1.3-.2.6-.2v-.4h-4.7v.4zm22.2 0c.3.1.5.2.6.3.1.1.1.3.1.6v8.7l-7.9-8.4c-.1-.1-.2-.3-.3-.4-.1-.1-.1-.2-.1-.3 0-.1.1-.2.1-.3.1-.1.2-.1.3-.2v-.4h-5.2v.4c.3.1.5.2.6.3.1.1.1.3.1.6v12.7c0 .3 0 .4-.1.6-.1.1-.3.2-.6.3v.4h4.2v-.4c-.3-.1-.4-.1-.5-.2-.1-.1-.1-.3-.1-.6v-9.1l8.3 8.8c.1.1.2.3.3.4.1.1.1.2.1.3 0 .1 0 .2-.1.3-.1.1-.2.1-.3.2v.4h4.8v-.4c-.3-.1-.4-.1-.5-.2-.1-.1-.1-.3-.1-.6v-12.7c0-.3 0-.5.1-.6.1-.1.3-.2.5-.3v-.4h-4.2v.2zm24.9 7.8c.1-.1.3-.2.6-.3v-.4h-7.2c-.3 0-.5 0-.6-.1-.1-.1-.2-.3-.3-.6h-.4v3.5h.4c.1-.3.2-.5.3-.6.1-.1.3-.1.6-.1h3.8v2.1c-.9.3-1.7.6-2.4.7-.8.2-1.5.2-2.2.2-1.8 0-3.3-.5-4.5-1.5-1.2-1-1.8-2.2-1.8-3.7 0-1.6.5-2.8 1.6-3.8s2.5-1.5 4.2-1.5c1.2 0 2.4.2 3.5.7 1.1.5 1.7.9 1.7 1.3v.2l.3.2 1.9-3.6-.3-.2h-.2c-.3.1-.5.1-.6.1 0 0-.7-.2-2-.6-1.3-.4-2.7-.6-4-.6-2.7 0-4.9.7-6.6 2.2-1.7 1.5-2.6 3.4-2.6 5.7 0 2.3.8 4.1 2.5 5.7 1.7 1.5 3.8 2.3 6.3 2.3 1.3 0 2.8-.2 4.3-.7s2.9-1 4.3-1.8v-.4c-.3-.1-.5-.1-.6-.3-.1-.1-.1-.3-.1-.6v-3c-.1-.2 0-.4.1-.5zm-86.8 11.4c.1 0 .2.1.2.1s.1.1.1.2v.2l-.4.1h-.1c-.1 0-.1 0-.1-.1 0 0-.1-.1-.1-.2h-.1v1.6h.1c0-.2.1-.3.3-.3l.4-.1v3.7c0 .1 0 .2-.1.2 0 0-.1.1-.2.1v.1h1.8v-.1c-.1 0-.2-.1-.2-.1s-.1-.1-.1-.2v-4.9c0-.1 0-.2.1-.2 0 0 .1-.1.2-.1v-.1h-1.8v.1zm7.4 2.6c.4-.1.6-.3.8-.5.2-.2.2-.4.2-.7 0-.5-.2-.9-.7-1.2-.5-.3-1.1-.4-1.9-.4-.8 0-1.4.1-1.9.4-.5.3-.7.7-.7 1.2 0 .3.1.6.3.8.2.2.5.4.8.5-.5.1-.8.3-1 .5-.2.2-.3.5-.3.9 0 .6.3 1 .8 1.4.5.3 1.2.5 2.1.5.9 0 1.6-.2 2.1-.5s.7-.8.7-1.4c0-.4-.1-.7-.3-.9-.3-.3-.6-.5-1-.6zm-2.5-1.7c.2-.1.6-.2 1-.2s.7.1 1 .2c.2.1.4.3.4.5s-.1.4-.3.5c-.2.1-.6.2-1 .2s-.8-.1-1-.2c-.2-.1-.3-.3-.3-.5-.2-.2-.1-.4.2-.5zm2.1 3.8c-.3.2-.6.2-1.1.2s-.9-.1-1.1-.2c-.3-.2-.4-.4-.4-.7 0-.3.1-.5.4-.6.3-.2.7-.2 1.1-.2.5 0 .9.1 1.1.2.3.2.4.4.4.6 0 .3-.1.5-.4.7zm7.2-2.1c.4-.1.6-.3.8-.5.2-.2.2-.4.2-.7 0-.5-.2-.9-.7-1.2-.5-.3-1.1-.4-1.9-.4-.8 0-1.4.1-1.9.4-.5.3-.7.7-.7 1.2 0 .3.1.6.3.8.2.2.5.4.8.5-.5.1-.8.3-1 .5-.2.2-.3.5-.3.9 0 .6.3 1 .8 1.4.5.3 1.2.5 2.1.5.9 0 1.6-.2 2.1-.5s.7-.8.7-1.4c0-.4-.1-.7-.3-.9-.3-.3-.6-.5-1-.6zm-2.5-1.7c.2-.1.6-.2 1-.2s.7.1 1 .2c.2.1.4.3.4.5s-.1.4-.3.5c-.2.1-.6.2-1 .2s-.8-.1-1-.2c-.2-.1-.3-.3-.3-.5-.2-.2-.1-.4.2-.5zm2.1 3.8c-.3.2-.6.2-1.1.2-.5 0-.9-.1-1.1-.2-.3-.2-.4-.4-.4-.7 0-.3.1-.5.4-.6.3-.2.7-.2 1.1-.2.5 0 .9.1 1.1.2.3.2.4.4.4.6 0 .3-.1.5-.4.7zm7.4-1s-.1.1-.2.1h-.3v-3.4c0-.1 0-.2.1-.2 0 0 .1-.1.2-.1v-.1H270v.1c.1 0 .1 0 .2.1v.2l-.1.1-3 3.3v1.3h.1c0-.1.1-.2.1-.2s.1-.1.2-.1h3.2v.5c0 .1 0 .2-.1.2 0 0-.1.1-.2.1v.1h1.8v-.1c-.1 0-.2-.1-.2-.1s-.1-.1-.1-.2v-.5h.3c.1 0 .2 0 .2.1 0 0 .1.1.1.2h.1V170h-.1c0 .1-.1.2-.1.2zm-1.7.1h-2.5l2.5-2.7v2.7zm-9.3-28.3c.1-.9.4-1.6 1.2-1.9 2.3-.2 4.6-1.5 6.9-3.8.3.1.6.3 1 .4 1.6-2.3 1.8-4.8 1-7.1-.7 1.8-2.1 3.5-3.6 4.4.2.4.6.7.7 1.1-1.4 1.2-2.9 2.1-4.5 2.5-.2-.6-.8-1.1-1.6-1.2v-5c4.7 3.1 10.1-3.2 6-8.2 4.3-4.5.6-8.1-6-5.3v-1.2c.6-.4 1-1.1 1-1.8 0-1.2-1-2.2-2.2-2.2-1.2 0-2.2 1-2.2 2.2 0 .8.4 1.5 1 1.8v2.3c-13.9 8.8-6.8 18.8 0 10.1v7.1c-.8 0-1.5.5-1.8 1.2-1.6-.4-3-1.3-4.3-2.4.2-.4.6-.7.7-1.1-1.6-1-2.9-2.6-3.6-4.4-.8 2.3-.6 4.8 1 7.1.3-.1.6-.3 1-.4 2.3 2.3 4.6 3.6 6.9 3.8.8.4 1.2 1.1 1.4 2zm1-22.6c3.4-1.6 7.5-1.2 4.7 3-6.5-1.7-4.3 4.6-.1 2 1.9 2.4-2.3 8.9-4.6 4.4v-9.4zm3.5 4c-1.9 1-1.9-1 0 0zM260 121l.2-.2v6.7c-6.7 7.2-8.8-.8-.2-6.5z"/><ellipse transform="rotate(-25.351 274.973 130.306)" class="st1" cx="274.9" cy="130.3" rx=".3" ry=".2"/><ellipse transform="rotate(47.894 277.396 128.56)" class="st1" cx="277.4" cy="128.6" rx=".3" ry=".5"/><path class="st1" d="M295.8 122.1c-1.4.4-14.8.2-19.6-.6-4.8-.8-7.2 1.1-5.1 5.2 1 1.6 1.5 3.4 1.5 5.5-.6 3.7 3.6 4.5 6.7 1.6 1.4 0 2.4-.2 2.8-1.2 1.3.3 2.4-.2 3-1.2 1.6.3 2.6-.1 3.4-1.4 1.4.1 2.6-.3 3.3-1.6 1.5-.5 2.3-1.2 2.3-2.2 1.6-.6 2.4-1.4 2.2-2.4 1.4 0 .9-2-.5-1.7zm-2.2 4c0 .8-1 1.7-2.3 2.1-.6 1-1.7 1.6-3 1.5-.7 1-2.2 1.6-3.6 1.4-.5.8-1.8 1.4-2.9 1.2-.3.7-1.5 1.1-2.8 1.1-2.7 2.2-6.1 1.8-5.6-1 0-1.6-.2-3.4-.7-4.5-1.8-3.4.1-4.3 4.3-3.6 4.2.7 15.8.4 17-.1 2-.5 1.2 1.4-.4 1.9zm1.8-2.6c-.3.2-6.5.8-12.2.6-5-.2-8.3-.9-9.9-.6-.7.1-1.5-.3-.1-.7 3.2-.3 6.5.7 9.7.7 4.1.1 8.2 0 12.3-.5.8.1 1.1.3.2.5z"/><ellipse transform="rotate(-38.215 276.466 129.38)" class="st1" cx="276.5" cy="129.4" rx=".3" ry=".2"/><ellipse transform="rotate(61.946 275.75 129.989)" class="st1" cx="275.7" cy="130" rx=".2" ry=".3"/><path class="st1" d="M284.6 125.2c-3.2-.2-6.4-.3-9.7-.5-2.3-.2-2.4 1.1-1.6 2.4-.2.7-.2 1.3-.1 2.2.7 1.4 3.2.3 3.1-.9.9-.2 1.2-.7 1.2-1.4.6-.1 1.1-.6 1.3-1.5.4.4-.6 1.4.4 1 .3-.1.5-.4.4-.9.7 0 1.4.1 2.1.1.3.3.3.4-.1.5-.6 0-1.2.1-1.8.1-.3.1-.3.3-.4.6.6.1 1.1.1 1.7.1.3.2.6.3-.1.7h-2.1c-.3.2-.4.4-.3.6.5 0 .9.1 1.4.1.1 0 .1.4-.3.5-.2.1-1.7-.2-1.7-.2-.2 0-.4.1-.3.4.4.1.9.3 1.3.4l-.5.5c-.5-.1-1.1-.2-1.6-.3-.3 0-.5.2-.5.4.4.1.8.3 1.2.4.2.2-.1.3-.6.3-.3-.2-.7-.3-1-.5-.4 0-.6.1-.5.3.3.2.5.4.8.5 0 .2-.2.3-.6.2-.3-.2-.5-.4-.8-.7-.3-.1-.5.1-.5.3.9 1.2 2.2 2 3.5 2.6.4-.1.7-.2.5-.4-.8-.4-1.6-.8-2.2-1.3.6.1 1-.1 1-.6 1 .5 2.4.8 3.9 1.1.4-.1.5-.3.3-.4-1.2-.3-2.4-.5-3.3-1 .3-.1.4-.3.4-.6 1.6.5 3.4.8 5.3.9.4-.2.6-.4.2-.5-1.7-.1-3.3-.4-4.7-.8.5-.1.5-.4.4-.7 2.2.4 4.6.6 7.2.7.5-.1.8-.3.6-.5-2.4-.1-4.7-.3-6.8-.6.3-.1.4-.3.2-.6 3 .3 6.1.4 9.3.4.4-.3.6-.6.3-.8-3 0-5.9 0-8.7-.2.6 0 .6-.3.3-.9 3.5.1 7 .1 10.5-.1.4-.3.6-.6.3-.8-3.5.2-7 .3-10.6.2.2-.2.2-.4 0-.6 3.7.1 7.6 0 11.4-.2.5-.4.6-.6.4-.7-2.9.6-6.2.7-9.5.7zm-9.5 4.2c-.5.1-.7.1-.9 0-.4-.3-.3-.7.3-.7.4-.1.8-.1 1.2-.1.3 0-.4.8-.6.8zm1-1.6h-1.3c-.5-.2-.3-.5.4-.5h1.4c.3 0-.3.5-.5.5zm.9-1.4c-.9.1-1.6 0-2-.1-.7-.2-.5-.6.6-.7h2.1c.5.1-.4.9-.7.8z"/><ellipse transform="rotate(47.894 278.353 127.413)" class="st1" cx="278.4" cy="127.4" rx=".3" ry=".6"/><ellipse transform="rotate(-141.785 246.163 129.383)" class="st1" cx="246.2" cy="129.4" rx=".3" ry=".2"/><ellipse transform="rotate(-151.951 246.918 129.988)" class="st1" cx="246.9" cy="130" rx=".3" ry=".2"/><ellipse transform="rotate(-137.911 245.264 128.55)" class="st1" cx="245.3" cy="128.6" rx=".5" ry=".3"/><ellipse transform="rotate(-154.662 247.702 130.313)" class="st1" cx="247.7" cy="130.3" rx=".3" ry=".2"/><path class="st1" d="M251.6 126.8c2.1-4.1-.4-6-5.1-5.2-4.8.8-18.1.9-19.6.6-1.4-.4-1.9 1.7-.4 1.9-.3 1 .6 1.8 2.2 2.4 0 1 .8 1.7 2.3 2.2.7 1.4 1.9 1.7 3.3 1.6.8 1.3 1.8 1.6 3.4 1.4.6 1 1.7 1.4 3 1.2.4.9 1.4 1.2 2.8 1.2 3 2.8 7.3 2 6.7-1.6-.1-2.3.4-4.1 1.4-5.7zm-24.2-3.7c4.1.5 8.2.6 12.3.5 3.3-.1 6.5-1.1 9.7-.7 1.5.3.6.8-.1.7-1.7-.3-5 .4-9.9.6-5.7.2-11.8-.4-12.2-.6-.9-.3-.5-.5.2-.5zm21.9 9.4c.5 2.8-2.9 3.2-5.6 1-1.2 0-2.4-.4-2.8-1.1-1.1.2-2.4-.4-2.9-1.2-1.4.2-2.9-.4-3.6-1.4-1.2.1-2.4-.5-3-1.5-1.4-.4-2.3-1.3-2.3-2.1-1.7-.6-2.5-2.5-.3-1.8 1.2.4 12.9.8 17 .1 4.2-.7 6 .2 4.3 3.6-.6 1-.8 2.8-.8 4.4z"/><path class="st1" d="M247.7 124.8c-3.2.2-6.4.3-9.7.5-3.3 0-6.5-.1-9.7-.3-.2.1-.1.3.4.7 3.9.2 7.7.3 11.4.2-.2.2-.2.4 0 .6-3.5.1-7 0-10.6-.2-.3.3 0 .5.3.8 3.5.2 7 .2 10.5.1-.3.5-.3.8.3.9-2.8.2-5.7.3-8.7.2-.3.2-.1.5.3.8 3.2 0 6.3-.1 9.3-.4-.2.3-.1.5.2.6-2.1.3-4.4.5-6.8.6-.3.2 0 .4.6.5 2.6-.1 5-.3 7.2-.7-.1.3-.1.6.4.7-1.4.4-3 .6-4.7.8-.4.1-.2.3.2.5 2-.1 3.8-.4 5.3-.9 0 .3.2.5.4.6-.9.4-2.1.7-3.3 1-.2.1-.1.3.3.4 1.5-.3 2.9-.6 3.9-1.1 0 .5.4.6 1 .6-.7.5-1.4.9-2.2 1.3-.1.2.1.4.5.4 1.3-.7 2.6-1.4 3.5-2.6 0-.3-.1-.4-.5-.3-.3.2-.5.4-.8.7-.5.1-.7 0-.6-.2.3-.2.5-.4.8-.5.1-.2-.1-.3-.5-.3-.3.2-.7.3-1 .5-.6 0-.8-.1-.6-.3.4-.1.8-.3 1.2-.4 0-.3-.2-.4-.5-.4-.5.1-1.1.2-1.6.3l-.5-.5c.4-.1.9-.3 1.3-.4 0-.3-.1-.4-.3-.4 0 0-1.5.3-1.7.2-.4-.1-.4-.5-.3-.5.5 0 .9-.1 1.4-.1.1-.2 0-.4-.3-.6h-2.1c-.7-.3-.5-.5-.1-.7.6-.1 1.1-.1 1.7-.1-.1-.2-.1-.5-.4-.6-.6 0-1.2-.1-1.8-.1-.3-.1-.4-.2-.1-.5.7 0 1.4-.1 2.1-.1-.1.5.1.8.4.9 1 .4 0-.6.4-1 .2.9.6 1.4 1.3 1.5 0 .7.4 1.2 1.2 1.4-.1 1.2 2.4 2.3 3.1.9.1-.9.1-1.5-.1-2.2.9-1.7.8-3-1.4-2.8zm-2.7.9h2.1c1.1.1 1.3.4.6.7-.4.1-1.1.1-2 .1-.3 0-1.3-.8-.7-.8zm1.6 2.1c-.2 0-.8-.5-.5-.6h1.4c.7 0 .9.3.4.5-.3.1-.7.2-1.3.1zm1.9 1.5c-.2.1-.4.1-.9 0-.2.1-1-.8-.7-.8.4 0 .8 0 1.2.1.6.1.7.4.4.7z"/><ellipse transform="rotate(-137.919 244.282 127.425)" class="st1" cx="244.3" cy="127.4" rx=".6" ry=".3"/><path class="st1" d="M50.5 126.4c0-6.4 4.4-12.2 11.5-12.2s11.5 5.8 11.5 12.2c0 6.2-3.5 11.2-8.3 14.8l.2.4h11.3L79 137h-1.2l-1.6 2.3h-5.8c4-2.8 7.3-7.3 7.3-12.8 0-8.7-7.9-13.8-15.9-13.8s-15.9 5.1-15.9 13.8c0 5.5 3.3 9.9 7.3 12.8h-5.8l-1.5-2.3h-1.2l2.4 4.7h11.3l.2-.4c-4.6-3.6-8.1-8.7-8.1-14.9zm-8.8 37.4L34.9 148l-7.5 23.7H31l4.4-14 6.3 14.7 6.3-14.7 4.3 14H56L48.5 148zm-27.2-15.7c-6.6 0-12 5.4-12 12s5.4 12 12 12 12-5.4 12-12c.1-6.6-5.4-12-12-12zm0 20.7c-4.8 0-8.6-3.8-8.6-8.7 0-4.9 3.8-8.7 8.6-8.7s8.6 3.8 8.6 8.7c0 4.9-3.8 8.7-8.6 8.7zm98.1-21.5l-12.4 24.4h3.9l2.4-4.8h12.3l2.4 4.8h3.9l-12.5-24.4zm-4.4 16.3l4.4-8.7 4.4 8.7h-8.8zm-49.3 8.1H73v-3.3H62.4v-6.6h10.2v-3.3H62.4V152H73v-3.4H58.9zm41.6-12.4H88.7v3.4h8.1c-1 3.6-4.4 6.2-8.3 6.2-4.8 0-8.6-3.8-8.6-8.7 0-4.9 3.8-8.7 8.6-8.7 3 0 5.5 1.5 7.1 3.7l2.8-2c-2.2-3.1-5.8-5.1-9.8-5.1-6.6 0-12 5.4-12 12s5.4 12 12 12 12-5.4 12-12c-.1-.2-.1-.5-.1-.8z"/></svg>