<svg id="Layer_1" xmlns="http://www.w3.org/2000/svg" viewBox="0 0 255.1 255.1"><style>.st0{fill:#fff}</style><path class="st0" d="M168.1 74.4c.9 0 1.6-.7 1.6-1.6 0-.9-.7-1.6-1.6-1.6H71.9c-.9 0-1.6.7-1.6 1.6 0 .9.7 1.6 1.6 1.6h96.2zm0 19.3c.9 0 1.6-.7 1.6-1.6s-.7-1.6-1.6-1.6H71.9c-.9 0-1.6.7-1.6 1.6s.7 1.6 1.6 1.6h96.2zm0 20.1c.9 0 1.6-.7 1.6-1.6 0-.9-.7-1.6-1.6-1.6H71.9c-.9 0-1.6.7-1.6 1.6 0 .9.7 1.6 1.6 1.6h96.2zm0 18.5c.9 0 1.6-.7 1.6-1.6 0-.9-.7-1.6-1.6-1.6H71.9c-.9 0-1.6.7-1.6 1.6 0 .9.7 1.6 1.6 1.6h96.2zm-33.2 19.4c.9 0 1.6-.7 1.6-1.6 0-.9-.7-1.6-1.6-1.6h-63c-.9 0-1.6.7-1.6 1.6 0 .9.7 1.6 1.6 1.6h63z"/><path class="st0" d="M187.3 18.1h-136c-4.5 0-8.2 3.7-8.2 8.2v186c0 4.5 3.7 8.2 8.2 8.2h136c4.5 0 8.2-3.7 8.2-8.2v-186c0-4.6-3.7-8.2-8.2-8.2zm5.1 194.2c0 2.8-2.3 5.1-5.1 5.1h-136c-2.8 0-5.1-2.3-5.1-5.1v-186c0-2.8 2.3-5.1 5.1-5.1h136c2.8 0 5.1 2.3 5.1 5.1v186z"/><path class="st0" d="M64.5 237.1h142.7c2.7 0 4.9-2.2 4.9-4.9V39.5c0-2.7-2.2-4.9-4.9-4.9h-14.8v3.1H209v196.1H62.8v-15h-3.1v13.3c-.1 2.8 2.1 5 4.8 5z"/><path class="st0" d="M176.6 152.1l-3.4-1.2v-3.6c0-1.1-1.1-1.8-2.1-1.5l-3.4 1-2.2-2.8c-.7-.9-2.2-.7-2.7 0l-2.2 2.8-3.4-1c-1-.3-1.8.2-2.1 1.1-.1.2-.1.3-.1.5v3.6l-3.4 1.2c-.4.1-.8.4-1 .8s-.2.8-.1 1.2c.1.2.1.3.2.4l2 3-2 2.9c-.3.4-.4.8-.3 1.3.1.4.3.8.7 1.1.1.1.3.2.4.2l3.4 1.2v3.6c0 .5.2.9.5 1.2.3.3.7.5 1.1.5h.3l2.5-.4-3.3 21.4 7.9-3.8 7.8 3.9s.1 0 .1-.1l-3.6-21.7 2.7.7c.9.2 1.8-.3 2-1.2v-4l3.4-1.2c.4-.1.8-.4 1-.8s.2-.8.1-1.2c-.1-.2-.1-.3-.2-.4l-1.7-3 1.9-2.8c.5-.8.4-1.8-.4-2.3-.1-.5-.3-.6-.4-.6z"/></svg>