<svg id="Layer_1" xmlns="http://www.w3.org/2000/svg" viewBox="0 0 255.1 255.1"><style>.st0{fill:#fff}</style><path class="st0" d="M32.9 216.1h189.3c5 0 9-4 9-9v-81.9h11.3V93.5c0-13.3-10.8-24.2-24.2-24.2h-28.9V48c0-5-4-9-9-9h-106c-5 0-9 4-9 9v21.3H36.7c-13.3 0-24.2 10.8-24.2 24.2v31.7h11.4v81.9c0 5 4 9 9 9zm195.4-9c0 3.4-2.8 6.1-6.1 6.1H32.9c-3.4 0-6.1-2.8-6.1-6.1v-81.9h27.4V163h25.6v-37.8h95.6V163H201v-37.8h27.4v81.9zM76.9 147.9v12.3H57v-12.3h19.9zM57 145.1v-19.9h19.9v19.9H57zm141.1 2.8v12.3h-19.9v-12.3h19.9zm-19.9-2.8v-19.9h19.9v19.9h-19.9zM68.4 48c0-3.4 2.8-6.1 6.1-6.1h106c3.4 0 6.1 2.8 6.1 6.1v21.3H68.4V48zm-53 74.3V93.5c0-11.7 9.6-21.3 21.3-21.3h181.8c11.7 0 21.3 9.6 21.3 21.3v28.9H15.4z"/><path class="st0" d="M121.4 91.2v12.3h12.3V91.2h-12.3zm9.9 9.9h-7.6v-7.6h7.6v7.6zm5.3-9.9v12.3h12.3V91.2h-12.3zm9.9 9.9h-7.6v-7.6h7.6v7.6zm-40.2-9.9v12.3h12.3V91.2h-12.3zm9.9 9.9h-7.6v-7.6h7.6v7.6z"/></svg>