<svg id="Layer_1" xmlns="http://www.w3.org/2000/svg" viewBox="0 0 255.1 255.1"><style>.st0{fill:#fff}</style><path transform="rotate(44.992 88.607 88.614)" class="st0" d="M80.6 86.9h16.1v3.5H80.6z"/><path transform="rotate(75.001 113.305 74.362)" class="st0" d="M105.3 72.6h16.1v3.5h-16.1z"/><path transform="rotate(-75.008 141.814 74.349)" class="st0" d="M133.8 72.6h16.1v3.5h-16.1z"/><path transform="rotate(-74.995 74.35 113.317)" class="st0" d="M72.6 105.3h3.5v16.1h-3.5z"/><path class="st0" d="M192.5 129.6v-3.5l-54.1-.2-1.7-4.1-8 3.4-8.3-25.1-3.3 1.1 8.4 25.4-37.3 16 1.4 3.2 37-15.9 2.5 7.3 3.2-1.1-2.2-6.8z"/><path transform="rotate(-104.999 74.345 141.835)" class="st0" d="M72.6 133.8h3.5v16.1h-3.5z"/><path transform="rotate(75.001 180.784 113.324)" class="st0" d="M179 105.3h3.5v16.1H179z"/><path transform="rotate(104.999 113.306 180.799)" class="st0" d="M105.3 179.1h16.1v3.5h-16.1z"/><path transform="rotate(134.996 88.599 166.52)" class="st0" d="M80.6 164.8h16.1v3.5H80.6z"/><path transform="rotate(75.001 141.823 180.785)" class="st0" d="M133.8 179h16.1v3.5h-16.1z"/><path transform="rotate(-45.001 166.516 88.616)" class="st0" d="M158.5 86.9h16.1v3.5h-16.1z"/><path class="st0" d="M181.1 198.9c0 .5.2.9.5 1.2l5.3 5.3c.6.7 1.8.7 2.5 0l16-16c.3-.3.5-.8.5-1.2 0-.5-.2-.9-.5-1.2l-5.3-5.3c-.3-.3-.8-.5-1.2-.5-.5 0-.9.2-1.2.5l-16 16c-.4.3-.6.7-.6 1.2zm17.8-13.6l2.9 2.9-13.6 13.6-2.9-2.9 13.6-13.6zM234.4 96l-5-5-18.8 18.8-.3-1.4c-3.6-15.5-11.4-29.6-22.7-40.9a84.804 84.804 0 0 0-40.9-22.7l-1.4-.3 18.8-18.8-5-5h-.7c-3.6 0-13.8 3.1-15.1 3.5-1.3 1-13.8 10.8-22.3 18.5l-.2.2h-.3c-20 1.7-38.8 10.4-53 24.6-14.2 14.2-22.9 33-24.6 53v.3l-.2.2c-7.7 8.5-17.5 21-18.5 22.3-2.1 6.8-4 14.7-3.5 15.8l5 5 18.8-18.8.3 1.4c3.6 15.5 11.4 29.6 22.7 40.9 11.3 11.3 25.4 19.1 40.9 22.7l1.4.3L91 229.4l5 5s.2.1.7.1c3.6 0 13.8-3.1 15.1-3.5 1.3-1 13.8-10.8 22.3-18.5l.2-.2h.3c20-1.7 38.8-10.4 53-24.6 14.2-14.2 22.9-33 24.6-53v-.3l.2-.2c7.7-8.5 17.5-21 18.5-22.3 2.2-6.9 4.1-14.8 3.5-15.9zM25.7 159.2l-1.5-1.5.1-.4c.3-2.4 1.6-7.4 3.1-12.2l.1-.3c1.7-2.2 7.9-10 13.9-16.9l1.4-1.6v2.1c0 4.1.4 8.3 1 12.4l.1.4-18.2 18zM127.9 41.3c7-6 14.7-12.1 16.9-13.9l.3-.1c3.9-1.2 9.4-2.7 12.2-3.1l.4-.1 1.5 1.5-18 18-.4-.1c-4.1-.6-8.3-1-12.4-1h-2.1l1.6-1.2zm-.7 172.6c-6.9 5.9-14.7 12.1-16.9 13.9l-.3.1c-3.9 1.2-9.4 2.7-12.2 3l-.4.1-1.5-1.5 18-18 .4.1c4.1.6 8.3 1 12.4 1h2.1l-1.6 1.3zm81.2-77.1c-2.1 18.5-10.1 35.2-23.3 48.4-13.2 13.2-29.8 21.2-48.2 23.3h-.4c-3 .3-6 .5-9 .5-4.9 0-9.9-.4-14.7-1.3l-.4-.1c-16.1-3-30.7-10.8-42.4-22.4-11.6-11.6-19.4-26.3-22.4-42.5-.3-1.8-.6-3.6-.8-5.5l-.1-.7c-.2-2-.4-3.9-.4-5.8v-.3c-.1-4 0-8.1.5-12 2-18.6 10-35.3 23.2-48.4 13.2-13.2 29.8-21.2 48.2-23.3h.4c7.9-.9 16-.6 23.8.8h.4c16.1 3 30.7 10.8 42.4 22.4 11.7 11.7 19.4 26.4 22.4 42.6.3 1.7.6 3.5.8 5.5l.1.7c.2 2 .4 3.9.4 5.8v.3c.2 4 0 8.1-.5 12zm19.4-26.7l-.1.3c-1.7 2.2-7.9 10-13.9 16.9l-1.4 1.6v-2.1c0-4.1-.4-8.3-1-12.4l-.1-.4 18-18 1.5 1.5-.1.4c-.1 2.4-1.4 7.4-2.9 12.2z"/><path class="st0" d="M65.5 250.9l25-25c1.3-1.3 2-3 2-4.8 0-1.8-.7-3.5-2-4.8l-51.7-51.7c-1.3-1.3-3-2-4.8-2-1.8 0-3.5.7-4.8 2l-25 25c-2 2-2.5 5.1-1.3 7.7l.1.2c0 .1.1.2.1.3 5.8 9.9 14.1 20.3 24 30.2 9.9 9.9 20.4 18.3 30.3 24.1l.2.1c2.6 1.2 5.9.8 7.9-1.3zm-6.3-1.9l-.5-.2c-9.5-5.7-19.6-13.7-29.2-23.3C20 216 12 206 6.4 196.6l-.4-.8c-.5-1.1-.5-2.6.6-3.7l25-25c.8-.8 1.8-1 2.3-1 .5 0 1.5.1 2.3 1L88 218.8c.8.8 1 1.8 1 2.3 0 .5-.1 1.5-1 2.3l-25 25c-.8.8-1.8.9-2.3.9-.5.1-1 0-1.5-.3z"/><path transform="rotate(-134.991 166.51 166.535)" class="st0" d="M158.5 164.8h16.1v3.5h-16.1z"/><path class="st0" d="M252.2 57.9c-.1-.3-.1-.4-.2-.5-5.8-9.9-14.1-20.3-24-30.2-9.9-9.9-20.4-18.3-30.3-24.1h-.2c-1-.5-2.1-.8-3.2-.8-1.8 0-3.5.7-4.8 2l-25 25c-2.6 2.6-2.6 6.9 0 9.6l51.7 51.7c2.5 2.5 7 2.5 9.6 0l25-25c2.1-2.1 2.6-5.2 1.4-7.7zm-3.7 5.1l-25 25c-.8.8-1.8 1-2.3 1s-1.5-.1-2.3-1l-51.7-51.7a3.32 3.32 0 0 1 0-4.7l25-25c.8-.8 1.8-.9 2.3-.9.5 0 1.1.1 1.6.4l.4.2C205.9 12 216 20 225.6 29.6c9.5 9.5 17.5 19.5 23.1 28.9l.3.7c.6 1.2.6 2.7-.5 3.8z"/><path transform="rotate(104.999 180.782 141.83)" class="st0" d="M179 133.8h3.5v16.1H179z"/><path class="st0" d="M127.6 52.7c-20 0-38.8 7.8-52.9 21.9-29.2 29.2-29.2 76.7 0 105.9 14.1 14.1 32.9 21.9 52.9 21.9s38.8-7.8 52.9-21.9c29.2-29.2 29.2-76.7 0-105.9-14.1-14.1-32.9-21.9-52.9-21.9zM178 178c-13.5 13.5-31.4 20.9-50.5 20.9s-37-7.4-50.5-20.9c-27.8-27.8-27.8-73.1 0-101 13.5-13.5 31.4-20.9 50.5-20.9s37 7.4 50.5 20.9c27.9 27.9 27.9 73.2 0 101z"/></svg>