<svg id="Layer_1" xmlns="http://www.w3.org/2000/svg" viewBox="0 0 255.1 255.1"><style>.st0{fill:#fff}</style><path class="st0" d="M30 190.1c0 19 43.8 34.5 97.6 34.5s97.6-15.5 97.6-34.5c0-9.3-11.1-18.2-29.4-24.6 14.8 5.9 23.4 13.7 23.4 22 0 18.1-41.1 32.9-91.6 32.9-50.5 0-91.6-14.8-91.6-32.9 0-8.3 8.6-16.1 23.4-22-18.3 6.4-29.4 15.3-29.4 24.6z"/><path class="st0" d="M59.9 185.3c0 13.2 30.4 23.9 67.7 23.9s67.7-10.7 67.7-23.9c0-6.3-4.8-11.3-14.3-15.1 6.9 3.4 10.3 7.8 10.3 13.3 0 12.7-28.6 23-63.7 23s-63.7-10.3-63.7-23c0-5.7 3.5-10.3 10.6-13.8-9.7 3.8-14.6 9.1-14.6 15.6z"/><path class="st0" d="M75.7 127.8c0 26.5 23.3 48 51.8 48s51.8-21.5 51.8-48c0-24.5-44.7-87.4-51.8-97.3-7.1 9.9-51.8 72.8-51.8 97.3zM128.6 39c7.1 10.4 13.2 19.8 18.6 28.5 24.8 40 27.5 55.3 27.5 59.9 0 23.7-21.1 42.9-47.1 42.9S80.5 151 80.5 127.4c0-4.6 2.7-19.8 27.4-59.8 5.8-9.4 12.5-19.6 18.8-28.7l1-1.4.9 1.5z"/><path class="st0" d="M92.1 123.8c-1 0-1.7.8-1.7 1.8 0 18.7 14.7 33.9 32.9 33.9 1 0 1.7-.8 1.7-1.8s-.7-1.8-1.7-1.8c-16.2 0-29.4-13.6-29.4-30.3-.1-1-.8-1.8-1.8-1.8z"/></svg>