<?xml version="1.0" encoding="utf-8"?>
<!-- Generator: Adobe Illustrator 18.0.0, SVG Export Plug-In . SVG Version: 6.00 Build 0)  -->
<!DOCTYPE svg PUBLIC "-//W3C//DTD SVG 1.1//EN" "http://www.w3.org/Graphics/SVG/1.1/DTD/svg11.dtd">
<svg xmlns="http://www.w3.org/2000/svg" xmlns:xlink="http://www.w3.org/1999/xlink" version="1.1" id="Layer_1" x="0px" y="0px" viewBox="0 0 140.9 38.6" xml:space="preserve">


	<g>
	<g>
		<g>
			<path fill-rule="evenodd" clip-rule="evenodd" d="M33.5,22.5c0.1-1.1,2-8.1,2-8.8c0-1.5-0.9-2.3-2-1.6c-0.9,0.6-1.3,1.9-1.6,3.1     c-0.6,2.4-0.6,5-0.3,7.3c0.7,4.4,2.2,8.3,4.2,12.1c0.7,1.4,1.7,2.6,2.6,4c-0.2-0.1-0.5-0.3-0.7-0.5c-4-3.6-6.5-8.4-7.7-14.3     c-0.8-3.6-1.1-7.3-0.2-10.9c0.3-1.2,0.8-2.4,1.4-3.5c1.5-2.6,4.8-2.7,6.4-0.2c0.6,1,0.9,2.2,0.6,3.6c-0.1,0.7-0.9,2.4-1.8,4.2     C35.2,19.4,34,21.7,33.5,22.5z"/>
		</g>
		<g>
			<circle fill-rule="evenodd" clip-rule="evenodd" cx="36" cy="3" r="3"/>
		</g>
	</g>
</g>
<text transform="matrix(1 0 0 1 38.0383 27.2702)" font-family="'PTSerif-Regular'" font-size="24.9359">cedpages</text>
<text transform="matrix(1 0 0 1 2.2049 27.2702)" font-family="'PTSerif-Regular'" font-size="24.9359">sp</text>
</svg>
