<?xml version="1.0" encoding="utf-8"?>
<!-- Generator: Adobe Illustrator 18.1.1, SVG Export Plug-In . SVG Version: 6.00 Build 0)  -->
<!DOCTYPE svg PUBLIC "-//W3C//DTD SVG 1.1//EN" "http://www.w3.org/Graphics/SVG/1.1/DTD/svg11.dtd" [
	<!ENTITY st0 "fill:#231F20;">
]>
<svg version="1.1" id="Layer_1" xmlns="http://www.w3.org/2000/svg" xmlns:xlink="http://www.w3.org/1999/xlink" x="0px" y="0px"
	 viewBox="187.5 345.4 221 144.5" style="enable-background:new 187.5 345.4 221 144.5;" xml:space="preserve">
<path style="&st0;" d="M205.5,484.5c-5.9-0.4-10.1-6.5-10.7-12.4c-0.6-5.9,1.1-11.8,1.9-17.7c3.3-23-7.3-47.2-0.2-69.3
	c0.6-1.9,1.4-3.8,1.4-5.9c0.1-2.8-1.3-5.4-1.8-8.1c-1.6-8.8,6.1-17.1,14.7-19.8c8.6-2.7,17.8-1.3,26.8-0.8
	c14.1,0.8,28.4-0.6,42.4,1.3c8,1.1,15.9,3.2,24,3.8c7.5,0.6,15.1-0.1,22.5-0.8c18.1-1.7,36.2-3.3,54.3-5c4.3-0.4,8.9-0.8,12.8,1.2
	c6.9,3.6,8.2,12.6,8.4,20.4c0.2,11.9-0.5,23.8-1.2,35.6c-0.4,6.5-0.8,13.1-1.2,19.6c-1,15.9-2,31.7-3,47.6c-0.2,2.3-0.4,4.8-1.9,6.6
	c-1.5,1.6-3.7,2.2-5.8,2.7c-30.9,5.9-62.4-5.3-93.8-4.8c-12.7,0.2-25.3,2.3-38,3.7c-17.4,1.9-35,2.4-52.6,1.4"/>
</svg>
