<svg xmlns="http://www.w3.org/2000/svg" viewBox="187.5 345.4 221 144.5"><path d="M205.5 484.5c-5.9-.4-10.1-6.5-10.7-12.4-.6-5.9 1.1-11.8 1.9-17.7 3.3-23-7.3-47.2-.2-69.3.6-1.9 1.4-3.8 1.4-5.9.1-2.8-1.3-5.4-1.8-8.1-1.6-8.8 6.1-17.1 14.7-19.8 8.6-2.7 17.8-1.3 26.8-.8 14.1.8 28.4-.6 42.4 1.3 8 1.1 15.9 3.2 24 3.8 7.5.6 15.1-.1 22.5-.8 18.1-1.7 36.2-3.3 54.3-5 4.3-.4 8.9-.8 12.8 1.2 6.9 3.6 8.2 12.6 8.4 20.4.2 11.9-.5 23.8-1.2 35.6-.4 6.5-.8 13.1-1.2 19.6-1 15.9-2 31.7-3 47.6-.2 2.3-.4 4.8-1.9 6.6-1.5 1.6-3.7 2.2-5.8 2.7-30.9 5.9-62.4-5.3-93.8-4.8-12.7.2-25.3 2.3-38 3.7-17.4 1.9-35 2.4-52.6 1.4" fill="#231f20"/></svg>