<svg xmlns="http://www.w3.org/2000/svg" viewBox="-286 -619.7 1167.3 1671.3"><path fill="#231F20" d="M-215 1040.1c-32.7-2.3-55.9-36-59.2-68.7-3.3-32.7 6.2-65.4 10.5-98.1 18.3-127.5-40.5-1172.8-1-1295.4 3.3-10.5 7.8-21 7.8-32.7.6-15.4-7.2-29.8-9.9-44.8-8.8-48.7 33.7-94.8 81.4-109.6 47.7-15 98.5-7.2 148.5-4.5 78.1 4.5 157.3-3.3 234.9 7.2 44.2 6.2 88 17.7 132.9 21 41.5 3.3 83.7-.6 124.6-4.5 100.4-9.5 200.5-18.3 300.9-27.8 23.9-2.3 49.4-4.5 71 6.6 38.3 19.9 45.4 69.7 46.5 112.9 1 66-2.7 131.8-6.6 197.2-2.3 36-4.5 984-6.6 1020-5.6 88-11.1 175.6-16.7 263.7-1 12.8-2.3 26.5-10.5 36.6-8.2 8.8-20.6 12.1-32.1 15-171.1 32.7-345.7-29.4-519.7-26.5-70.3 1-140.1 12.8-210.6 20.6-96.5 10.5-193.9 13.4-291.4 7.8"/></svg>