<svg xmlns="http://www.w3.org/2000/svg" viewBox="0 0 100 100"><circle fill="none" stroke="#66469B" stroke-miterlimit="10" cx="50" cy="50" r="49.5"/><circle fill="#66469B" cx="34.7" cy="66.3" r="1.8"/><path fill="#FFF" d="M34.7 68.4c-.6 0-1.1-.2-1.5-.6-.8-.8-.8-2.2 0-3.1.8-.8 2.3-.8 3.1 0 .4.4.6 1 .6 1.5 0 .6-.2 1.1-.6 1.5-.4.5-1 .7-1.6.7zm0-3.6c-.4 0-.7.1-1 .4-.5.5-.5 1.4 0 2 .3.3.6.4 1 .4s.7-.1 1-.4c.3-.3.4-.6.4-1s-.1-.7-.4-1c-.2-.2-.6-.4-1-.4z"/><circle fill="#66469B" cx="57.9" cy="43" r="1.8"/><path fill="#FFF" d="M57.9 45.2c-.6 0-1.1-.2-1.5-.6-.8-.8-.8-2.2 0-3.1.8-.8 2.3-.8 3.1 0 .4.4.6 1 .6 1.5 0 .6-.2 1.1-.6 1.5-.4.5-1 .7-1.6.7zm0-3.6c-.4 0-.7.1-1 .4-.5.5-.5 1.4 0 2 .3.3.6.4 1 .4s.7-.1 1-.4c.3-.3.4-.6.4-1s-.1-.7-.4-1c-.2-.2-.6-.4-1-.4z"/><path fill="#66469B" d="M56.8 33.2l-3-3-21.1 21.1 3 3-15.4 15.4 11 11 15.4-15.4 3 3 21.1-21.1-3-3 11.9-11.9-11-11-11.9 11.9zM31.3 78.6l-8.9-8.9 14.2-14.2 7.7 7.7 1.1 1.1-14.1 14.3zm34.3-34.3L50.4 59.5l-4-4 .5-.6 1.1-1.1c.7.4 1.7.3 2.3-.3.7-.7.7-1.9 0-2.7-.7-.7-1.9-.7-2.7 0-.6.6-.7 1.5-.3 2.2l-1.7 1.7-4-4 15.2-15.2 8.8 8.8zm-10-9.9L39.4 50.6l5.1 5.1-.2.3-2.3 2.2.8.8 2.5-2.5 5.1 5.1 16.2-16.2 1.8 1.8L49.7 66l-6.3-6.3-.6.6-2-2 .6-.6-6.4-6.4 18.8-18.8 1.8 1.9zm22-2.1l-1.1 1.1-9.7 9.7-8.9-8.9 10.9-10.9 8.8 9z"/><path fill="#FFF" d="M31.3 81.2L19.7 69.7l15.4-15.4-3-3 21.6-21.6 3 3 11.9-11.9 11.5 11.5-11.8 11.9 3 3-21.6 21.6-3-3-15.4 15.4zM20.8 69.7l10.4 10.4 15.4-15.4 3 3 20.5-20.5-3-3L79 32.3 68.7 21.8l-11.9 12-3-3-20.5 20.5 3 3-15.5 15.4zm10.5 9.4l-9.4-9.4 14.8-14.8 9.4 9.4-14.8 14.8zM23 69.7l8.3 8.3L45 64.3 36.7 56 23 69.7zm26.7-3.2l-6.3-6.3-.6.6-2.5-2.5.6-.6-6.3-6.3L53.8 32l2.4 2.4-16.3 16.2 5.1 5.1-2.5 2.5.2.2 2.5-2.5 5.1 5.1 16.2-16.2 2.4 2.4-19.2 19.3zm-6.4-7.4l6.3 6.3 18.2-18.2-1.3-1.3-16.1 16.2-5.1-5.1-2.5 2.5-1.3-1.3 2.5-2.5-5.1-5.1 16.2-16.2-1.3-1.3-18.2 18.2 6.3 6.3-.6.6 1.4 1.4.6-.5zm7.1.9l-4.6-4.6.7-.9 1.3-1.3.3.2c.6.3 1.3.3 1.8-.2.3-.3.4-.7.4-1.1s-.1-.8-.3-1.1c-.6-.6-1.5-.6-2.1 0-.5.5-.6 1.2-.3 1.8l.1.3-2.2 2.2-4.5-4.7 15.7-15.7 9.4 9.4L50.4 60zm-3.5-4.6l3.5 3.5L65 44.3 56.7 36 42.1 50.6l3.5 3.5 1.2-1.2c-.3-.8-.1-1.8.5-2.4.9-.9 2.3-.9 3.2 0 .4.4.7 1 .7 1.6 0 .6-.2 1.2-.7 1.6-.6.6-1.7.8-2.5.5l-.9.9-.2.3zm19.8-11.7l-9.4-9.4 11.4-11.4 9.4 9.4-11.4 11.4zm-8.3-9.4l8.3 8.3L77 32.3 68.7 24 58.4 34.3z"/><circle fill="#66469B" cx="67.4" cy="33.6" r="1.8"/><path fill="#FFF" d="M67.4 35.8c-.6 0-1.1-.2-1.5-.6-.8-.8-.8-2.2 0-3.1.8-.8 2.3-.8 3.1 0 .4.4.6 1 .6 1.5 0 .6-.2 1.1-.6 1.5-.5.4-1 .7-1.6.7zm0-3.6c-.4 0-.7.1-1 .4-.5.5-.5 1.4 0 2 .3.3.6.4 1 .4s.7-.1 1-.4c.3-.3.4-.6.4-1s-.1-.7-.4-1c-.3-.3-.6-.4-1-.4z"/></svg>