<svg id="Layer_1" xmlns="http://www.w3.org/2000/svg" viewBox="0 0 205.8 134"><style>.st0{fill:#010101}</style><path class="st0" d="M36.5 49.2c6.4-.8 12.7-1.4 19.1-1.9v.1c.3 2.3 3.9 2.3 3.6 0 0-.1 0-.3-.1-.4 13.8-1 27.7-1.6 41.5-1.7 22.9-.1 45.6 2.3 68.4 3.9 2.3.2 2.3-3.5 0-3.6-22.8-1.6-45.5-4-68.4-3.9-7.3 0-14.6.2-21.9.5.7-.2 1.4-.8 1.4-1.7 0-4.3-1.9-12.6 3.8-13.9 7.6-1.8 11.2 6.2 13 12 .6 1.9 3.7 1.6 3.6-.5-.1-3.5.8-9.5 5.6-9.2 4.5.3 5.2 5.7 4.8 9.2-.3 2.2 2.9 2.3 3.6.5 1.3-3.5 1.3-10 6.2-10.2 5.8-.3 8.6 6.5 8.7 11.3.1 2.1 3 2.5 3.6.5 1.4-4.4 1.5-15.5 7.1-16.9 4.1-1 7.1 2.6 7.8 6.1.6 3.5 0 7.1-.5 10.5-.3 2.3 3.2 3.3 3.5 1 .4-3 .8-6.5.6-9.8.9-.6 2.9-.7 3.8-1.1 1.2-.5 2.3-1 3.3-1.8 2.1-1.7 3.5-4.3 4.8-6.6 1.2-2-2-3.9-3.1-1.8-1.4 2.4-2.7 5.1-5.3 6.4-1 .5-2.6.7-4 1.2-1.1-4.2-3.7-7.5-9.4-7.8-6.8-.4-9 6.2-10.4 12.4-1.8-3.8-5-6.8-9.5-7.1-4.8-.3-6.9 2.3-8.3 5.6-1.3-2.8-3.7-5-7.3-5.1-4.3-.1-6.9 2.6-8.2 6.1-2.8-5.3-7.2-9.6-14.1-8.5-3.5.6-5.4 2.4-6.4 4.8-2-6.2-5.6-11.5-12.8-10.3-6.3 1-9.1 5-10.1 9.9-4.7-1.7-8.3-5.2-12-8.5-1.8-1.5-4.3 1-2.6 2.6 4.4 3.8 8.5 7.8 14.1 9.6-.2 4.2.4 8.7.9 12.7-6.2.5-12.4 1.1-18.6 1.9-2.1.1-2.1 3.8.2 3.5zM65 21c9.5-1.9 10.7 13.7 11.7 20 .1.7.6 1.1 1.2 1.3-6.4.3-12.8.7-19.2 1.1C57.3 35.1 55.4 23 65 21zM55.3 9.3v.3c.2 2.1 1.7 3.8 3.8 4.3 2.8.6 6.5.3 7.9-2.6C69.1 7.1 65.5.2 60.7 0c-3.8-.1-5.6 4.1-6.4 7.2-.3 1 .3 1.7 1 2.1zm4.8-5.5c0-.1 0-.1 0 0 .1-.1.2-.1.3-.1h.4c.1 0 .2 0 .3.1h.2c.1.1.3.2.4.3.1.1.1 0 .1 0l.2.1.8.8c0 .1.2.2.2.3.1.2.2.3.3.5l.3.6c0 .1.1.1.1.2v.1c.1.3.2.7.3 1.1 0 .1.1.3.1.4V9c0 .1 0 .2-.1.2-.1.3-.1.3-.2.5-.1.1-.1.2-.4.3-.1 0-.1.1-.1.1h-.1c-.2.1-.5.1-.8.2h-1.5c-.5 0-1.2 0-1.5-.4-.8-.8-.1-2.1.7-2.7 1.3-.9.9-2.7-.2-3.3l.1-.1c-.1.1-.2.1.1 0z"/><path class="st0" d="M88.1 19.1c2.1-.8 4-2.5 3.9-4.9-.1-2.1-1.7-3.8-3.6-4.5-1.4-.5-2.9-.3-4.2.2-.2-.1-.5-.1-.8-.1-.6-.1-1.2.4-1.6.9-1.4 2-2.3 4.8-.9 7 1.6 2.5 4.9 2.3 7.2 1.4zm.1-5.1c0-.1.1.4.1.4 0 .1-.1.4 0 .2v.1c-.1.2-.1.3-.3.5-.3.3-.7.4-1.1.6-.8.2-1.9.5-2.6.2-.3-.1-.4-.4-.3-1 0-.2.1-.3.1-.5l.1-.1c.1.1.3.2.4.3 1.3.8 2.6-.3 2.7-1.5.1 0 .1 0 .2.1.1 0 .6.4.7.7zm11.5 4.4c.3 1.4 1.2 2.8 2.4 3.6 1.5 1 3.3.8 4.7-.2 2.6-1.8 4.6-6.4 2.2-9.1-1.7-1.9-4.6-1.5-6.8-.8-1 .3-1.3 1.2-1.3 2-.9 1.2-1.5 2.7-1.2 4.5zm4.5.5c0 .1 0 .1 0 0 0 .1 0 .1 0 0zm.2.1c0 .1 0 .1 0 0zm1.6-4.1c.1 0 .2 0 .2.1h.1l.1.1v.1c0 .1.1.2.1.4-.1-.5 0 .2 0 .5v.1c-.1.2-.1.4-.1.5 0 .1-.1.2-.1.3 0 .1-.1.3-.1.3-.2.3-.3.6-.5.8v.1l-.1.1c-.1.1-.2.2-.3.4l-.2.2c-.1 0-.2.2-.3.2 0 0-.1.1-.2.1h-.1c.2-.1 0 0-.1 0h-.1l-.1-.1v.1l-.1-.1-.2-.2c-.3-.3-.6-.8-.6-1.2 0-.6.5-1.1.9-1.5.3-.3.4-.6.5-.9.3-.4.8-.4 1.3-.4zm19.3 6.2c2.2-1.1 3.4-3.6 2.7-6-.7-2.3-2.8-3.2-5-3-.2-.2-.5-.4-.8-.6-.9-.5-2-.2-2.5.7-1.2 1.9-2 4.6-1.1 6.8 1 2.7 4.3 3.3 6.7 2.1zm-2.1-3.1c-.4.1-.8.1-1.1 0 0 0-.1-.2-.1-.1-.1-.2-.1-.5-.2-.6 0-.3 0-.7.1-1 .8.5 1.7.2 2.2-.5h.1c.2.1.3.2.3.5.2.6-.3 1.5-1.3 1.7zm22.4-.2c2.1-.4 3.7-2.4 4.8-4.2 1-1.7 1.9-4 1.3-6-1-3-4.1-2.4-6.5-1.3-1.1-.3-2.2-.3-3.1.4-2 1.3-1.9 4.3-1.5 6.3.4 2.6 2 5.5 5 4.8zm1.5-5.7c-.1.2-.2.3-.3.5 0 .1-.1.1-.1.2-.2.3-.5.5-.7.8-.1.1-.2.2-.4.3-.1 0-.2.1-.2.2-.1.1-.2.1-.3.2h-.1s-.1 0-.1-.1c-.1-.2-.2-.3-.3-.5 0 0-.2-.4-.2-.6-.1-.3-.2-.7-.2-1-.1-.6-.1-1.3-.1-1.9.4.2.8.2 1.3.1.2.1.4.2.5.3.8.5 1.6.3 2.1-.3 0 .1-.1.2-.1.3-.1.1-.1.2-.2.3-.3.5-.4.8-.6 1.2zm1.1-3.1c0-.1 0-.1 0 0 0-.1 0-.1 0 0zm-14.8 73.8c-2.5 4.7-7.4-.3-7-4.1.2-1.4 1-2.9 1.7-4.1.4-.6.9-1.6 1.5-2 .4-.2.1-.2.5.6 1 2.1 4.2.3 3.1-1.8-2.8-5.6-7.3-1-9.4 3.4-1.4-3.9-4.7-6.8-10.1-5.5-2.3.5-1.3 4 1 3.5 8.8-2.1 8.3 15.1.4 11.7-2.1-.9-4 2.2-1.8 3.1 5.5 2.4 9.1-.2 10.5-4.1 2.7 4.9 9.2 7.4 12.6 1.1 1.2-2-1.9-3.9-3-1.8zm21.1-12.3c-1.3 3.4-2.9 6.6-4.7 9.8-2.7-2.8-4.2-6.6-5.9-10-1-2.1-4.2-.3-3.1 1.8 2 4 3.8 8.4 7.2 11.4-.9 1.4-1.8 2.7-2.7 4.1-.7 1-3.4 5.2-5.1 6.1-.3-.6-.9-1.1-1.6-1.1h-1c-1.4 0-2.2 1.5-1.6 2.7 6 11 20.8-20.9 22-23.9.9-2.1-2.6-3-3.5-.9zM7.2 69.2c-.4-.2-.9-.3-1.4-.2-.2 0-.4.1-.5.1-.6 0-1.2 0-1.7.1-1.4.2-1.9 1.5-1.7 2.5-2.3 3.4-2.6 8.9-.6 11.9 3 5 10.1 5 14.7 2.4 4.4-2.5 6.1-7.8 2.3-11.7-2.6-2.8-7-4.7-11.1-5.1zm8.7 12.3c-1.9 2.4-6.4 3.4-9.2 2.2-2.1-.9-3.1-2.8-3.1-4.9 0-1.7.6-4.7 2.2-5.8 5.1.5 14.1 3.6 10.1 8.5zm70 2.5c-3 .2-7.2.1-8.8-2.9-1.8-3.4.2-8.9 4.5-8.2 2.3.4 3.3-3.1 1-3.5-5.8-.9-9.6 3.3-9.7 8.7-.1 0-.2.1-.3.2-.7.5-1.3 1-2 1.5.1-2.6.4-5.2.6-7.8.2-2.3-3.4-2.3-3.6 0-.2 1.8-1.3 3.5-2.7 4.8-1.5-4.7-7.9-9.8-12.4-6.9-2 1.3-.1 4.4 1.8 3.1 2.7-1.7 7.1 3.2 7.2 5.7.3 4.4-5.2 6.1-8.7 5.6-2.3-.3-3.3 3.2-1 3.5 5.2.7 11.7-1.5 13-6.7.1 0 .2-.1.4-.2.6-.3 1.1-.7 1.7-1.2-.1 1.7-.1 3.5 0 5.2.1 1.7 2.5 2.7 3.4.9.8-1.6 1.9-2.8 3.2-3.9 1.9 4.7 7.6 6 12.4 5.7 2.3-.1 2.4-3.7 0-3.6zm-41.5-4.2H42c-.3-2.8.3-5.6.4-8.4 0-1.1-.9-1.7-1.8-1.8-3.7-.4-7-1.5-10.1.6-.8.2-1.4.7-1.4 1.7 0 2.9 0 5.8-.4 8.6h-3.1c-1.3 0-2 1.2-1.8 2.3.4 2.3.4 4.5.7 6.8.3 2.3 3.9 2.3 3.6 0-.2-1.8-.3-3.7-.5-5.5 5-.1 10-.7 15-.7.1 1.5.2 3.2-.4 4.4-1.1 2.1 2 3.9 3.1 1.8 1.4-2.5.9-5.4.8-8.1.1-.8-.7-1.6-1.7-1.7zm-11.7-6.7c1.7-1 3.9-.5 6-.1-.1 2.4-.4 4.7-.3 7-2 .1-4 .3-6 .4.2-2.5.3-4.9.3-7.3zm74.3 7.6c.1-3.8-.3-7.6-3-10.3-3.5-3.4-8.6-1.7-10.7 2.3-1.1 2.1 2 3.9 3.1 1.8 1.9-3.6 5.4-2.5 6.4 1.1.3 1 .4 2 .5 3.1-4-1.3-9.5-2.2-10.8 2.7-.6 2.4.9 4.7 2.9 5.9 2.6 1.5 5.3.6 7.9-.2.8 1.3 3.4 1 3.4-1 0-1.2.1-2.5.1-3.8.3-.5.4-1.1.2-1.6zm-9 3.7c-1.2-.3-2.8-1.9-1.3-2.9 1.7-1.1 4.4 0 6.5.9v.9c-1.6.5-3.5 1.5-5.2 1.1zm68.6-14.3c-.5-1.8-3.6-1.6-3.6.5.1 4.7.1 9.5-.2 14.2-.2 3.7-.7 7.4-.1 11.2.3 2.3 3.8 1.3 3.5-1-.3-2.5-.2-5.1.1-7.6 3.5.8 7.3 1 9.8-2.2 2.3-2.9 2.9-7.5 1-10.8-1.9-3.3-7-5.5-10.5-4.3zm6.7 12.8c-1.7 2.2-4.4 1.5-6.8.9.2-2.9.2-5.8.2-8.7 1-3.5 5.9-.9 7.2 1.3 1.1 1.8.7 4.8-.6 6.5zm29.7 1c-3.3 1.6-3.4-2.4-3.6-4.8-.2-2.9.1-5.9-.2-8.8-.3-2.3-3.9-2.3-3.6 0 .3 2.3.1 6.5.5 10.2-.1 0-.2.1-.3.1-1.9 1.2-6.2 5-8.5 3.5-2-1.2-1.7-4.7-1.5-6.6.3-2.6.6-5-.1-7.5-.6-2.2-4.2-1.3-3.5 1 1.5 5.1-2.7 13.4 3.7 16.5 3.7 1.9 7.9-1.1 11-3.2 1.1 3.2 3.3 5 8 2.7 2.1-1 .2-4.1-1.9-3.1zm-35.1 40.8c-1 1.7-3.3.2-3.2-1.5 0-.6.4-1.2.8-1.7.2-.3.4-.6.7-.8.3-.2.1-.2.3.2.5 1 2 .1 1.5-.9-1.3-2.3-3.4-.6-4.4 1.3-.7-1.6-2.1-2.8-4.5-2.3-1.1.2-.6 1.9.5 1.7 3.8-.9 3.5 6.5.2 5-1-.4-1.9 1-.9 1.5 2.5 1.1 4.1-.1 4.7-1.9 1.3 2 4.3 2.7 5.8.2.5-.9-.9-1.7-1.5-.8zm-13.1-4.9c-.7 1.8-1.6 3.6-2.5 5.2-1.5-1.5-2.3-3.5-3.2-5.4-.5-1-2-.1-1.5.9 1 2.1 2 4.4 3.8 6-.5.8-1 1.5-1.5 2.2-.4.5-1.8 2.8-2.7 3.2-.1-.3-.4-.6-.8-.6h-.5c-.7 0-1 .7-.7 1.3 1.5 2.8 4.1.1 5.2-1.5 2.5-3.4 4.6-7 6.1-11 .4-.8-1.3-1.3-1.7-.3zm22.6-.1c.2 1.2.2 2.4.3 3.6-1.3-.2-2.7-.2-4-.3 0-1.2.1-2.5.4-3.7.3-1.1-1.4-1.5-1.7-.5-.4 1.5-.5 3-.5 4.6-.1.2-.1.5 0 .7 0 1.1.1 2.1.1 3.2s1.7 1.1 1.7 0c0-.9 0-1.7-.1-2.6 1.3.2 2.7.2 4 .3v2.3c0 1.1 1.7 1.1 1.7 0 0-2.5 0-5-.3-7.6 0-1-1.7-1.1-1.6 0zm-31.8 5.1c-.4-1-2.1-.6-1.7.5.5 1.2-1.1.7-1.7.3-.7-.4-1.2-1-1.7-1.5-.2-.2-.4-.4-.7-.5 1.2-.8 2-2.2 1.9-3.9-.1-1.1-1.8-1.1-1.7 0 .1 1.9-1.1 2.9-2.8 3 .1-.9.1-1.8.2-2.6.1-1.1-1.5-1.5-1.7-.5-.3 2.4-.2 5-.8 7.4-.3 1.1 1.4 1.5 1.7.5.3-1 .4-2 .4-3 2.4.2 3.4 2.8 5.8 3.3 2 .1 3.6-1 2.8-3zm-109.7-5.5c-1-.6-2.1-.6-3.2-.1l-.6.3c-.3-.8-1.7-.8-1.7.3.1 2.4 0 4.7-.1 7.1-.1 1.9-.4 3.8-.1 5.7.2 1.1 1.8.6 1.7-.5-.3-1.9.1-3.8.2-5.7v-1c1.7 1.3 4.8 1.2 5.5-1.1.6-1.7-.1-4-1.7-5zm0 4.8c-.8 1.1-3.3.3-3.3-1 0-.4-.2-.6-.4-.7v-.4c.2-.1.3-.3.4-.5.8-.8 2-1.4 2.9-.2.5.6.9 2 .4 2.8zm11.3-4.4c-.7 1.8-1.6 3.6-2.5 5.2-1.5-1.5-2.3-3.5-3.2-5.4-.5-1-2-.1-1.5.9 1 2.1 2 4.4 3.8 6-.5.8-1 1.5-1.5 2.2-.4.5-1.8 2.8-2.7 3.2-.1-.3-.4-.6-.8-.6h-.5c-.7 0-1 .7-.7 1.3 1.5 2.8 4.1.1 5.2-1.5 2.5-3.4 4.6-7 6.1-11 .4-.9-1.3-1.3-1.7-.3zm9.6 4.1c.2-.2.5-.4.6-.6.7-.9 1-2.2.4-3.2-1-1.6-4.5-2.8-6-1.3-.8.8.4 2 1.2 1.2.6-.6 2.7.2 3.1.7 1.6 1.8-2.3 2.2-3.2 2.2-.9 0-1.2 1.5-.2 1.7.8.1 5.7.8 3.7 2.3-1.1.9-3.3 1.1-4.2-.3-.6-.9-2.1-.1-1.5.9 1.4 2.4 5.1 2.3 7 .5.8-.7 1.3-1.8.7-2.9-.3-.4-.9-.9-1.6-1.2zm14.3.3c-.2.3-.6.8-1.1.8-.5-.1-.5-.7-.6-1.1v-.4c0-1.1.3-2.1.4-3.2.1-1.1-1.6-1.1-1.7 0-.1.9-.4 2.1-.4 3.2-.8 1-2.7 2.1-3.9 1.7-1.7-.5-.5-3.9-.5-5.2 0-1.1-1.7-1.1-1.7 0-.1 2.3-1.4 6 1.8 6.8 1.6.4 3.4-.3 4.7-1.4.1.2.2.4.4.5 1.3 1.4 3.3.5 4.1-.9.6-.9-.9-1.8-1.5-.8zm9.1-4.1c.2 1.2.2 2.4.3 3.6-1.3-.2-2.7-.2-4-.3 0-1.2.1-2.5.4-3.7.3-1.1-1.4-1.5-1.7-.5-.4 1.5-.5 3-.5 4.6-.1.2-.1.5 0 .7 0 1.1.1 2.1.1 3.2s1.7 1.1 1.7 0c0-.9 0-1.7-.1-2.6 1.3.2 2.7.2 4 .3v2.3c0 1.1 1.7 1.1 1.7 0 0-2.5 0-5-.3-7.6 0-1.1-1.7-1.1-1.6 0zm12.1-.3c-2.9-2.1-7.3.1-7.6 3.5-.4 3.5 4 7.2 6.9 4.1.8-.8-.4-2-1.2-1.2-1.9 2-4.5-1.2-3.9-3.3.6-2 3.2-3 4.9-1.7.9.8 1.8-.7.9-1.4zm11.3 6.1c0 .3-.2.5-.5.5-.4.2-.8.1-1.1-.3-.2-.2-.2-.5-.3-.8-.2-.6-.4-1.1-.8-1.6s-.8-.8-1.3-1.1c1.8-.7 3.5-1.9 2.8-3.7-.4-1-2-.6-1.7.5.4 1.3-2.7 2-3.9 2.2.1-.9.2-1.8.2-2.6 0-1.1-1.7-1.1-1.7 0-.1 3.1-1.2 6.6.3 9.5.5 1 2 .1 1.5-.9-.6-1.3-.7-2.8-.5-4.3.9.2 1.9.6 2.6 1.2.6.6.7 1.2 1 1.9.4.9 1 1.5 1.9 1.7 1.8.4 3.9-1.3 2.9-3.2-.4-.9-1.9 0-1.4 1zm-71.8-14.1c1.1.2 1.5-1.4.5-1.7-3-.6-6-.6-8.9.2-.3-.3-.9-.4-1.2 0-.2.2-.4.5-.5.7-.3.4-.2 1.1.2 1.4-.3 4.9.1 9.8-.9 14.6-.2 1.1 1.4 1.5 1.7.5 1.1-5 .7-10.2 1-15.4 2.6-.9 5.3-.9 8.1-.3zm83.2 13c.1-2.2-.1-4.6-1.9-5.7-2.1-1.3-4.9.1-6 2.1-.6 1 .9 1.8 1.5.9.8-1.3 3.1-2.6 4.2-.9.5.8.7 1.9.6 3-.8-.4-1.7-.4-2.5-.2-1.2.3-3.1 1.5-2.8 2.9.3 1.7 2.3 1.5 3.5 1.1.6-.2 1.2-.4 1.7-.8 0 1.1 1.7 1.1 1.7 0 0-.4 0-.9.1-1.4l.1-.1c.1-.3 0-.6-.2-.9zm-5.2 1.8c0-.2.4-.5.5-.6.2-.2.5-.3.7-.4.4-.1 1.1-.3 1.5 0l-.6.3c-.4.3-1.7 1-2.1.7zm13.2-8.4c-.9 0-1.7.4-2.3 1-1.1 1.1-1.9 3.2-.6 4.5.2.2.5.3.7.4-.8 1.5-1.6 3.8-3.3 3.4-1.1-.2-1.5 1.4-.5 1.7 3.3.7 4.1-2.8 5.6-4.9.3 0 .7-.1 1-.2v2.9c0 1.1 1.7 1.1 1.7 0v-4.1c0-.6 0-1.3-.1-2h.1c.4-.2.6-.8.3-1.2-.6-.9-1.4-1.5-2.6-1.5zm.3 4.2c-.5.1-1.2.2-1.5.2-.1 0-.2 0-.3-.1 0 0-.1 0-.1-.1l-.1-.1-.1-.1v-.4c0-.1 0-.2.1-.3.1-.2 0-.1.1-.3.2-.4.3-.5.6-.8.2-.2.1-.1.3-.2.1-.1.2-.1.3-.1.3-.1.5-.1.7 0v.4c.2.6.3 1.3.3 2-.1-.2-.2-.2-.3-.1zm67-2c-.6-.8-1.5-1.5-2.6-1.5-.9 0-1.7.4-2.3 1-1.1 1.1-1.9 3.2-.6 4.5.2.2.5.3.7.4-.8 1.5-1.6 3.8-3.3 3.4-1.1-.2-1.5 1.4-.5 1.7 3.3.7 4.1-2.8 5.6-4.9.3 0 .7-.1 1-.2v2.9c0 1.1 1.7 1.1 1.7 0v-4.1c0-.6 0-1.3-.1-2h.1c.4-.2.6-.8.3-1.2zM188 123c-.5.1-1.2.2-1.5.2-.1 0-.2 0-.3-.1 0 0-.1 0-.1-.1l-.1-.1-.1-.1v-.4c0-.1 0-.2.1-.3.1-.2 0-.1.1-.3.2-.4.3-.5.6-.8.2-.2.1-.1.3-.2.1-.1.2-.1.3-.1.3-.1.5-.1.7 0v.4c.2.6.3 1.3.3 2-.1-.1-.2-.1-.3-.1z"/></svg>