<svg xmlns="http://www.w3.org/2000/svg" viewBox="0 0 100 100"><circle fill="none" stroke="#66469B" stroke-miterlimit="10" cx="50" cy="50" r="49.5"/><path fill="#66469B" d="M60.7 36.5H35.3c-.5 0-.9-.4-.9-.9s.4-.9.9-.9h25.3c.5 0 .9.4.9.9s-.3.9-.8.9z"/><path fill="#FFF" d="M60.7 36.9H35.3c-.7 0-1.3-.6-1.3-1.3s.6-1.3 1.3-1.3h25.3c.7 0 1.3.6 1.3 1.3s-.5 1.3-1.2 1.3zm-25.4-1.7c-.2 0-.4.2-.4.4s.2.4.4.4h25.3c.2 0 .4-.2.4-.4s-.2-.4-.4-.4H35.3z"/><path fill="#66469B" d="M60.7 41.5H35.3c-.5 0-.9-.4-.9-.9s.4-.9.9-.9h25.3c.5 0 .9.4.9.9 0 .6-.3.9-.8.9z"/><path fill="#FFF" d="M60.7 42H35.3c-.7 0-1.3-.6-1.3-1.3s.6-1.3 1.3-1.3h25.3c.7 0 1.3.6 1.3 1.3s-.5 1.3-1.2 1.3zm-25.4-1.7c-.2 0-.4.2-.4.4s.2.4.4.4h25.3c.2 0 .4-.2.4-.4s-.2-.4-.4-.4H35.3z"/><path fill="#66469B" d="M60.7 46.8H35.3c-.5 0-.9-.4-.9-.9s.4-.9.9-.9h25.3c.5 0 .9.4.9.9s-.3.9-.8.9z"/><path fill="#FFF" d="M60.7 47.3H35.3c-.7 0-1.3-.6-1.3-1.3 0-.7.6-1.3 1.3-1.3h25.3c.7 0 1.3.6 1.3 1.3.1.7-.5 1.3-1.2 1.3zm-25.4-1.7c-.2 0-.4.2-.4.4s.2.4.4.4h25.3c.2 0 .4-.2.4-.4s-.2-.4-.4-.4H35.3z"/><path fill="#66469B" d="M60.7 51.7H35.3c-.5 0-.9-.4-.9-.9s.4-.9.9-.9h25.3c.5 0 .9.4.9.9s-.3.9-.8.9z"/><path fill="#FFF" d="M60.7 52.2H35.3c-.7 0-1.3-.6-1.3-1.3s.6-1.3 1.3-1.3h25.3c.7 0 1.3.6 1.3 1.3s-.5 1.3-1.2 1.3zm-25.4-1.8c-.2 0-.4.2-.4.4s.2.4.4.4h25.3c.2 0 .4-.2.4-.4s-.2-.4-.4-.4H35.3z"/><path fill="#66469B" d="M51.9 56.8H35.3c-.5 0-.9-.4-.9-.9s.4-.9.9-.9h16.6c.5 0 .9.4.9.9s-.4.9-.9.9z"/><path fill="#FFF" d="M51.9 57.3H35.3c-.7 0-1.3-.6-1.3-1.3s.6-1.3 1.3-1.3h16.6c.7 0 1.3.6 1.3 1.3s-.5 1.3-1.3 1.3zm-16.6-1.8c-.2 0-.4.2-.4.4s.2.4.4.4h16.6c.2 0 .4-.2.4-.4s-.2-.4-.4-.4H35.3z"/><path fill="#66469B" d="M65.7 74.9H29.9c-1.4 0-2.6-1.2-2.6-2.6v-49c0-1.4 1.2-2.6 2.6-2.6h35.8c1.4 0 2.6 1.2 2.6 2.6v49c0 1.4-1.1 2.6-2.6 2.6zM29.9 22.5c-.5 0-.9.4-.9.9v49c0 .5.4.9.9.9h35.8c.5 0 .9-.4.9-.9v-49c0-.5-.4-.9-.9-.9H29.9z"/><path fill="#FFF" d="M65.7 75.4H29.9c-1.7 0-3.1-1.4-3.1-3.1v-49c0-1.7 1.4-3.1 3.1-3.1h35.8c1.7 0 3.1 1.4 3.1 3.1v49c0 1.7-1.4 3.1-3.1 3.1zM29.9 21.2c-1.2 0-2.2 1-2.2 2.2v49c0 1.2 1 2.2 2.2 2.2h35.8c1.2 0 2.2-1 2.2-2.2v-49c0-1.2-1-2.2-2.2-2.2H29.9zm35.8 52.4H29.9c-.7 0-1.3-.6-1.3-1.3v-49c0-.7.6-1.3 1.3-1.3h35.8c.7 0 1.3.6 1.3 1.3v49c.1.7-.5 1.3-1.3 1.3zM29.9 22.9c-.2 0-.4.2-.4.4v49c0 .2.2.4.4.4h35.8c.2 0 .4-.2.4-.4v-49c0-.2-.2-.4-.4-.4H29.9z"/><path fill="#66469B" d="M71 79.3H33.4c-1 0-1.7-.8-1.7-1.7v-4h1.7v3.9H71V26.8h-4.4v-1.7H71c1 0 1.7.8 1.7 1.7v50.7c0 1-.8 1.8-1.7 1.8z"/><path fill="#FFF" d="M71 79.7H33.4c-1.2 0-2.2-1-2.2-2.2v-4.4h2.7V77h36.6V27.3h-4.4v-2.7H71c1.2 0 2.2 1 2.2 2.2v50.7c0 1.3-1 2.2-2.2 2.2zM32.1 74v3.5c0 .7.6 1.3 1.3 1.3H71c.7 0 1.3-.6 1.3-1.3V26.8c0-.7-.6-1.3-1.3-1.3h-3.9v.8h4.4V78H32.9v-4h-.8z"/><path fill="#FFF" d="M63 58l.3-.5c.3-.4.2-.9-.2-1.2-.1-.1-.1-.1-.2-.1l-.5-.2v-.6c0-.5-.4-.9-.9-.9h-.3l-.6.2-.4-.5c-.2-.2-.4-.3-.7-.3-.3 0-.5.1-.7.3l-.4.5-.4-.1c-.5-.1-1 .1-1.1.6v.8l-.5.2c-.5.2-.7.6-.6 1.1 0 .1.1.2.1.2l.3.5-.3.5c-.3.4-.2.9.2 1.2.1.1.1.1.2.1l.5.2v.6c0 .5.4.9.9.9h.2l-.7 4.8c0 .3.2.5.4.6h.3l1.7-.9 1.7.9c.2.1.5 0 .7-.2 0-.1.1-.2 0-.3l-.8-4.8c.5.1.9-.2 1.1-.6v-1l.5-.2c.5-.2.7-.6.6-1.1 0-.1-.1-.2-.1-.2L63 58z"/><path fill="#66469B" d="M61.5 67.2c-.1 0-.3 0-.4-.1l-1.5-.8-1.6.8c-.2.1-.4.1-.6.1-.3 0-.5-.2-.6-.4-.2-.2-.2-.5-.2-.7l.7-4.3-.6-.3c-.2-.3-.4-.6-.4-1v-.2l-.2-.1c-.1 0-.2-.1-.3-.2-.3-.2-.5-.5-.5-.9-.1-.4 0-.7.2-1l.1-.2-.1-.2c-.1-.1-.1-.2-.2-.3-.1-.3-.1-.7.1-1 .2-.3.4-.6.8-.7l.2-.1v-.2c0-.1 0-.3.1-.4.2-.7 1-1.1 1.7-.9l.3.1.2-.2c.2-.3.6-.5 1.1-.5.4 0 .8.2 1.1.5l.2.2.3-.1c.1 0 .2-.1.4-.1.7 0 1.3.6 1.3 1.3v.3l.2.1c.1 0 .2.1.3.2.6.4.7 1.3.3 1.9l-.3.2.1.2c.1.1.1.2.2.3.1.3.1.7-.1 1-.2.3-.4.6-.8.7l-.2.1v.5c-.1.5-.5.9-1 1l.7 4.3c0 .2 0 .4-.1.6-.2.3-.5.5-.9.5zm-1.9-1.7l2 1-1-5.7.7.2c.2.1.5-.1.5-.3v-1.1l.9-.3c.1 0 .2-.1.3-.2s.1-.2 0-.3c0 0 0-.1-.1-.1l-.4-.8.5-.7c.1-.2.1-.5-.1-.6 0 0-.1 0-.1-.1l-.8-.4v-.9c0-.3-.3-.5-.6-.4l-.9.2-.5-.7c-.2-.2-.6-.2-.7 0l-.6.7-.9-.3c-.3-.1-.5.1-.5.3v1l-.9.3c-.1 0-.2.1-.3.2-.1.1-.1.2 0 .3 0 0 0 .1.1.1l.5.8-.5.8c-.2.2-.2.4-.2.5 0 .1.1.2.2.3 0 0 .1 0 .1.1l.9.3v.9c0 .1 0 .2.1.3.1.1.2.1.3.1h.1l.7-.1-.9 5.6 2.1-1z"/></svg>