<svg xmlns="http://www.w3.org/2000/svg" viewBox="0 0 100 100"><circle fill="none" stroke="#66469B" stroke-miterlimit="10" cx="50" cy="50" r="49.5"/><path fill="#66469B" d="M80.9 41.1c0-3.8-3.1-7-7-7h-7v-5c0-1.7-1.3-3-3-3H36c-1.7 0-3 1.3-3 3v5h-7c-3.9 0-7 3.1-7 7v9h3V71c0 1.7 1.3 3 3 3h49.8c1.7 0 3-1.3 3-3V50h3v-8.9zm-45.8-12c0-.5.5-1 1-1H64c.5 0 1 .5 1 1v5H35.1v-5zM75.9 71c0 .5-.5 1-1 1H25.1c-.5 0-1-.5-1-1V50h6v10h8V50H62v10h8V50h6v21zM32.1 56h4v2h-4v-2zm3.9-2h-4v-4h4v4zm28 2h4v2h-4v-2zm3.9-2h-4v-4h4v4zm11-6H21.1v-7c0-2.7 2.2-5 5-5h47.8c2.7 0 5 2.2 5 5v7z"/><path fill="#FFF" d="M74.9 74.6H25.1c-2 0-3.6-1.6-3.6-3.6V50.6h-3V41c0-4.2 3.4-7.6 7.6-7.6h6.4V29c0-2 1.6-3.6 3.6-3.6H64c2 0 3.6 1.6 3.6 3.6v4.4H74c4.2 0 7.6 3.4 7.6 7.6v9.6h-3V71c-.1 1.9-1.7 3.6-3.7 3.6zM19.7 49.4h3V71c0 1.3 1.1 2.4 2.4 2.4h49.8c1.3 0 2.4-1.1 2.4-2.4V49.4h3v-8.3c0-3.5-2.9-6.4-6.4-6.4h-7.6v-5.6c0-1.3-1.1-2.4-2.4-2.4H36c-1.3 0-2.4 1.1-2.4 2.4v5.6H26c-3.5 0-6.4 2.9-6.4 6.4v8.3zm55.2 23.2H25.1c-.9 0-1.6-.7-1.6-1.6V49.4h7.2v10h6.7v-10h25.1v10h6.7v-10h7.2V71c.1.8-.6 1.6-1.5 1.6zm-50.2-22V71c0 .2.2.4.4.4h49.8c.2 0 .4-.2.4-.4V50.6h-4.7v10h-9.2v-10H38.7v10h-9.2v-10h-4.8zm43.9 8h-5.2v-3.2h5.2v3.2zm-4-1.2h2.8v-.8h-2.8v.8zm-27.9 1.2h-5.2v-3.2h5.2v3.2zm-4-1.2h2.8v-.8h-2.8v.8zm35.9-2.8h-5.2v-5.2h5.2v5.2zm-4-1.2h2.8v-2.8h-2.8v2.8zm-27.9 1.2h-5.2v-5.2h5.2v5.2zm-4-1.2h2.8v-2.8h-2.8v2.8zm46.8-4.8h-59V41c0-3.1 2.5-5.6 5.6-5.6h47.8c3.1 0 5.6 2.5 5.6 5.6v7.6zm-57.8-1.2h56.6V41c0-2.4-2-4.4-4.4-4.4H26.1c-2.4 0-4.4 2-4.4 4.4v6.4zm43.9-12.7H34.4v-5.6c0-.9.7-1.6 1.6-1.6h28c.9 0 1.6.7 1.6 1.6v5.6zm-29.9-1.2h28.7v-4.4c0-.2-.2-.4-.4-.4H36c-.2 0-.4.2-.4.4v4.4z"/><path fill="#66469B" d="M51.6 43.7h-3.2v-3.2h3.2v3.2zm-2-1.3h.8v-.8h-.8v.8z"/><path fill="#FFF" d="M49 41.1h2v2h-2z"/><path fill="#66469B" d="M55.6 43.7h-3.2v-3.2h3.2v3.2zm-2-1.3h.8v-.8h-.8v.8z"/><path fill="#FFF" d="M53 41.1h2v2h-2z"/><path fill="#66469B" d="M47.6 43.7h-3.2v-3.2h3.2v3.2zm-2-1.3h.8v-.8h-.8v.8z"/><path fill="#FFF" d="M45 41.1h2v2h-2z"/></svg>