<svg xmlns="http://www.w3.org/2000/svg" viewBox="0 0 100 100"><path d="M.8 80.9c.8.1 1.6.2 2.4.2h2.5c4.7 0 9.2-.8 13.5-2.3 4.3-1.5 8.1-3.7 11.6-6.3-4.4-.1-8.3-1.4-11.8-4-3.4-2.6-5.8-6-7.1-10l1.8.3c.6.1 1.3.1 1.9.1 1 0 1.9-.1 2.7-.2.9-.1 1.7-.3 2.6-.5-4.6-1-8.5-3.3-11.6-7s-4.7-8-4.7-12.8v-.2c1.3.8 2.8 1.4 4.3 1.8 1.5.4 3.1.7 4.8.7-2.7-1.8-4.9-4.2-6.5-7.1a20 20 0 0 1-2.5-9.7c0-1.8.2-3.6.7-5.3.5-1.7 1.1-3.3 2-4.8 2.5 3 5.3 5.8 8.4 8.3 3.1 2.5 6.4 4.7 9.9 6.5 3.5 1.8 7.3 3.3 11.2 4.4 3.9 1.1 8 1.7 12.2 1.9-.1-.7-.2-1.4-.3-2.2-.1-.8-.1-1.6-.1-2.4 0-2.8.5-5.4 1.6-7.8s2.5-4.6 4.3-6.4c1.8-1.8 4-3.3 6.4-4.3 2.4-1.1 5.1-1.6 7.9-1.6 2.9 0 5.6.6 8.2 1.7 2.6 1.2 4.7 2.7 6.5 4.7 2.3-.4 4.5-1.1 6.7-1.9 2.1-.8 4.2-1.8 6.2-3-.8 2.3-1.9 4.4-3.5 6.3-1.5 1.9-3.4 3.5-5.5 4.8 2.1-.3 4.1-.7 6-1.2 2-.5 3.8-1.2 5.6-2-1.3 2-2.9 3.9-4.6 5.6-1.7 1.8-3.5 3.4-5.5 4.9v2.5c0 6.7-1.2 13.4-3.7 20.2-2.5 6.8-6.2 13-11.1 18.5-4.9 5.5-10.9 10-18 13.5S40.8 90 31.5 90c-2.8 0-5.6-.2-8.4-.6-2.8-.4-5.4-1-8-1.8-2.6-.8-5.1-1.7-7.5-2.9C5.4 83.6 3 82.3.8 80.9z"/></svg>