<svg xmlns="http://www.w3.org/2000/svg" viewBox="0 0 100 100"><circle fill="none" stroke="#66469B" stroke-miterlimit="10" cx="50" cy="50" r="49.5"/><path fill="#66469B" stroke="#FFF" stroke-width=".5" stroke-miterlimit="10" d="M69.2 64.1c-.1-.1-.3-.2-.5-.2s-.3.1-.5.2L64 68.3c-.3.3-.3.7 0 .9l1.4 1.4c.1.1.3.2.5.2s.3-.1.5-.2l4.2-4.2c.3-.3.3-.7 0-.9l-1.4-1.4zM66 69.2l-.5-.5 3.3-3.3.5.5-3.3 3.3zM55 33.9l-1.3-.3-1.2 4.5 1.3.3 1.2-4.5zm-7.5 4.2l-1.2-4.5-1.3.3 1.2 4.5 1.3-.3zm14.9.5l-.9-.9-3.3 3.3.9.9 3.3-3.3zm-22 34.6L26.8 59.6c-.4-.4-.9-.6-1.4-.6s-1 .2-1.4.6l-6.6 6.6c-.6.6-.7 1.5-.4 2.2 0 0 0 .1.1.1 1.5 2.5 3.7 5.3 6.4 8s5.5 4.9 8 6.4h.1c.3.1.6.2.9.2.5 0 1-.2 1.4-.6l6.6-6.6c.7-.6.7-1.9-.1-2.7zm-1 1.9l-6.6 6.6c-.2.2-.4.2-.5.2-.1 0-.2 0-.3-.1h-.1c-2.5-1.5-5.1-3.6-7.6-6.1-2.5-2.5-4.6-5.1-6.1-7.6l-.1-.2c-.1-.2-.1-.5.1-.7l6.6-6.6c.2-.2.4-.2.5-.2.1 0 .3 0 .5.2l13.6 13.6c.2.2.2.4.2.5 0 0 0 .2-.2.4zm2.5-34.2l-3.3-3.3-.9.9 3.3 3.3.9-.9zM83 31.6s0-.1-.1-.1c-1.5-2.5-3.7-5.3-6.4-8s-5.5-4.9-8-6.4h-.1c-.3-.1-.6-.2-.9-.2-.5 0-1 .2-1.4.6L59.6 24c-.8.8-.8 2 0 2.8l13.6 13.6c.4.4.9.6 1.4.6.5 0 1-.2 1.4-.6l6.6-6.6c.6-.6.7-1.5.4-2.2zm-1.3 1.3l-6.6 6.6c-.2.2-.4.2-.5.2-.1 0-.3 0-.5-.2L60.6 25.8c-.3-.3-.3-.7 0-.9l6.6-6.6c.2-.2.4-.2.5-.2.1 0 .2 0 .3.1h.2c2.5 1.5 5.1 3.6 7.6 6.1 2.5 2.5 4.6 5.1 6.1 7.6l.1.2c-.1.2-.1.5-.3.8zM61.9 47.5l4.5-1.2-.3-1.3-4.5 1.2.3 1.3zm-.3 6.3l4.5 1.2.3-1.3-4.5-1.2-.3 1.3zm-23.2-7.6L33.9 45l-.3 1.3 4.5 1.2.3-1.3zM50 30.1c-5.1 0-10.2 1.9-14.1 5.8-7.8 7.8-7.8 20.4 0 28.2 3.9 3.9 9 5.8 14.1 5.8s10.2-1.9 14.1-5.8c7.8-7.8 7.8-20.4 0-28.2-3.9-3.9-9-5.8-14.1-5.8zm13.1 33c-3.5 3.5-8.2 5.4-13.1 5.4-5 0-9.6-1.9-13.1-5.4-7.2-7.2-7.2-19 0-26.3 3.5-3.5 8.2-5.4 13.1-5.4 5 0 9.6 1.9 13.1 5.4 7.3 7.3 7.3 19.1 0 26.3zm13.7-23L72 44.9c-.9-4-2.9-7.8-6-10.9-3.1-3.1-6.9-5.1-10.9-6l4.8-4.8-1.5-1.5s-.2-.1-.3-.1c-1 0-4.1 1-4.1 1s-3.5 2.7-5.9 4.9C43 27.9 38 30.1 34 34s-6.1 9-6.5 14.1c-2.2 2.4-4.9 5.9-4.9 5.9s-1.3 4-.9 4.4l1.5 1.5 4.8-4.8c.9 4 2.9 7.8 6 10.9 3.1 3.1 6.9 5.1 10.9 6l-4.8 4.8 1.5 1.5s.2.1.3.1c1 0 4.1-1 4.1-1s3.5-2.7 5.9-4.9C57 72.1 62 69.9 66 66c3.9-3.9 6.1-9 6.5-14.1 2.2-2.4 4.9-5.9 4.9-5.9s1.3-4 .9-4.4l-1.5-1.5zM23.2 58l-.2-.2c.1-.7.4-2 .8-3.2.5-.6 2.1-2.6 3.6-4.4 0 1.1.1 2.2.3 3.3L23.2 58zm31.5-34.2c1.1-.3 2.5-.7 3.2-.8l.2.2-4.5 4.5c-1.1-.2-2.2-.3-3.3-.3 1.7-1.5 3.8-3.1 4.4-3.6zm-9.4 52.4c-1.1.3-2.5.7-3.2.8l-.1-.2 4.5-4.5c1.1.2 2.2.3 3.3.3-1.8 1.5-3.9 3.1-4.5 3.6zm25.8-23.8C70.6 57 68.5 61.5 65 65c-3.4 3.4-7.8 5.5-12.6 6.1-.8.1-1.6.1-2.4.1-1.3 0-2.6-.1-3.9-.4-4.2-.8-8-2.8-11-5.8-3.1-3.1-5.1-7-5.8-11.1-.1-.5-.2-1-.2-1.4v-.2c-.1-.5-.1-1-.1-1.5v-.1c0-1 0-2.1.1-3.1.3-4.6 2.4-9.1 5.9-12.6 3.4-3.4 7.8-5.5 12.6-6.1.8-.1 1.6-.1 2.4-.1 1.3 0 2.6.1 3.9.4 4.2.8 8 2.8 11 5.8 3.1 3.1 5.1 7 5.8 11.1.1.5.2.9.2 1.4v.2c.1.5.1 1 .1 1.5v.1c.2 1 .2 2.1.1 3.1zm5.1-7.1c-.5.6-2.1 2.6-3.6 4.4 0-1.1-.1-2.2-.3-3.3l4.5-4.5.2.2c-.1.7-.4 2.1-.8 3.2zm-23.7 2.9l-2.1.9-2.2-6.6-1.2.4 2.2 6.7-9.8 4.2.5 1.2 9.7-4.2.6 1.9 1.3-.4-.5-1.6 16.3.1v-1.3L53 49.3l-.5-1.1zM37.6 61.4l.9.9 3.3-3.3-.9-.9-3.3 3.3zm.5-8.9l-4.5 1.2.3 1.3 4.5-1.2-.3-1.3zm20 6.6l3.3 3.3.9-.9-3.3-3.3-.9.9zm-13.1 7l1.3.3 1.2-4.5-1.3-.3-1.2 4.5zm7.5-4.2l1.2 4.5 1.3-.3-1.2-4.5-1.3.3z"/></svg>