<svg xmlns="http://www.w3.org/2000/svg" viewBox="0 0 100 100"><circle fill="none" stroke="#66469B" stroke-miterlimit="10" cx="50" cy="50" r="49.5"/><path fill="#66469B" stroke="#FFF" stroke-width=".25" stroke-miterlimit="10" d="M59.6 57.4c8.5 1.3 14.4 4.3 14.4 7.8 0 4.7-10.7 8.6-24 8.6S26 70 26 65.2c0-3.5 5.9-6.5 14.4-7.8-9.5 1.4-16.2 4.7-16.2 8.5 0 5.1 11.5 9.2 25.8 9.2s25.8-4.1 25.8-9.2c0-3.8-6.7-7.1-16.2-8.5z"/><path fill="#66469B" stroke="#FFF" stroke-width=".25" stroke-miterlimit="10" d="M58.1 59.2c5.9.9 8.6 2.6 8.6 5 0 3.3-7.5 5.9-16.7 5.9s-16.7-2.7-16.7-5.9c0-2.4 2.5-4.2 8.4-5.2-6.6.9-9.7 3-9.7 5.6 0 3.5 8 6.4 17.9 6.4s17.9-2.9 17.9-6.4c.1-2.6-3.1-4.5-9.7-5.4z"/><path fill="#66469B" d="M36 49.5c0 7.1 6.3 12.9 14 12.9s14-5.8 14-12.9-14-26.1-14-26.1-14 19-14 26.1zm18.9-15.7c6.5 10.5 7.2 14.4 7.2 15.6 0 6.1-5.4 11-12.1 11s-12.1-4.9-12.1-11c0-1.2.7-5.1 7.2-15.6 1.8-2.9 3.5-5.5 4.9-7.5 1.4 2 3.2 4.7 4.9 7.5z"/><path fill="#FFF" d="M50 62.8c-7.9 0-14.3-5.9-14.3-13.3 0-7.2 13.4-25.5 14-26.3l.2-.3.2.3c.6.8 14 19.1 14 26.3.2 7.3-6.2 13.3-14.1 13.3zm0-38.9c-1.9 2.6-13.6 19.2-13.6 25.6 0 7 6.1 12.6 13.6 12.6s13.6-5.7 13.6-12.6c0-6.4-11.7-23-13.6-25.6zm0 36.8c-6.8 0-12.4-5.1-12.4-11.3 0-1.2.7-5.2 7.2-15.7 1.5-2.5 3.3-5.2 4.9-7.5l.3-.4.3.4c1.9 2.7 3.5 5.2 4.9 7.5 6.5 10.5 7.2 14.5 7.2 15.8 0 6.2-5.6 11.2-12.4 11.2zm0-33.8c-1.6 2.3-3.2 4.8-4.7 7.2-6.4 10.4-7.1 14.2-7.1 15.4 0 5.9 5.3 10.7 11.8 10.7s11.8-4.8 11.8-10.7c0-1.2-.7-5-7.1-15.5-1.4-2.2-2.9-4.5-4.7-7.1z"/><path fill="#FFF" d="M41.4 48.9c0-.4-.3-.8-.8-.8s-.8.3-.8.8c0 5.1 4 9.2 9 9.2.4 0 .8-.3.8-.8 0-.4-.3-.8-.8-.8-4 .1-7.4-3.3-7.4-7.6z"/><path fill="#66469B" d="M40.7 48.5c-.3 0-.4.2-.4.5 0 4.9 3.9 8.9 8.6 8.9.3 0 .4-.2.4-.5s-.2-.5-.4-.5c-4.3 0-7.8-3.6-7.8-8 0-.2-.2-.4-.4-.4z"/></svg>