<?xml version="1.0" encoding="utf-8"?>
<!-- Generator: Adobe Illustrator 18.1.1, SVG Export Plug-In . SVG Version: 6.00 Build 0)  -->
<!DOCTYPE svg PUBLIC "-//W3C//DTD SVG 1.1//EN" "http://www.w3.org/Graphics/SVG/1.1/DTD/svg11.dtd">
<svg version="1.1" id="Layer_1" xmlns="http://www.w3.org/2000/svg" xmlns:xlink="http://www.w3.org/1999/xlink" x="0px" y="0px"
	 viewBox="0 278.5 595.3 288" enable-background="new 0 278.5 595.3 288" xml:space="preserve">
<path fill="#7F8184" d="M121.8,419.2c17.6-2.1,35.2-3.9,52.9-5.3c0.1,0.7,0.2,1.3,0.3,1.9c0.5,4.2,7.3,4.3,6.8,0
	c-0.1-0.8-0.2-1.6-0.3-2.4c37.6-2.9,75.3-4.4,113-4.6c62-0.5,123.6,6.1,185.4,10.4c4.4,0.3,4.3-6.4,0-6.8
	c-61.7-4.4-123.3-10.8-185.4-10.4c-38,0.2-76.2,1.7-114.1,4.7c-3.9-23.7-9.7-57.4,18.8-63.6c26.1-5.6,29.8,38.6,32.5,55.1
	c0.6,3.8,6.6,2.8,6.6-0.9c-0.1-12.6-5.2-34.7,11.1-39c21.5-5.8,32,17.1,37.2,33.5c1.1,3.6,6.8,3,6.6-0.9
	c-0.5-10.7,2.5-26.3,16.1-26.3c13.4-0.1,16.2,16.2,14.9,26.3c-0.5,4,5.4,4.2,6.6,0.9c4.2-10.9,3.9-28.3,19-28.8
	c16-0.5,24,18.6,24.3,32c0.1,3.9,5.5,4.5,6.6,0.9c2.7-8.4,3.9-17.2,6.2-25.8c2.2-8.2,6-20.2,16-21.2c11.8-1.2,19.3,8.1,21.2,18.6
	c1.7,9.7-0.2,19.9-1.5,29.4c-0.6,4.3,6.2,4.2,6.8,0c1.1-8.6,2.5-17.4,1.8-26.1c0.3,0,0.9-0.3,1.8-0.9c1.1-0.3,2.3-0.5,3.4-0.9
	c1.9-0.5,3.8-1.1,5.6-1.8c2.8-1.1,5.5-2.5,7.9-4.4c5.8-4.5,9.4-11.4,12.9-17.6c2.2-3.8-3.6-7.2-5.8-3.4c-3.8,6.6-7.4,13.7-14.3,17.6
	c-2.8,1.5-8.4,2.2-12.6,3.8c-0.1-0.6-0.3-1.2-0.4-1.7c-3.1-11.9-13.5-19-25.6-19.6c-17.8-0.7-22.9,19.7-26.3,36.7
	c-4.1-11.1-12.3-20.9-24.3-22.3c-8.4-0.9-15.8,1.5-20.6,8.6c-1.6,2.4-2.7,5.1-3.7,7.8c-3-8-9.1-14.2-18.9-15.2
	c-12.4-1.3-19.3,8.2-22.2,18.9c-7.3-15.6-19-28-38.8-25.2c-10.2,1.4-14.8,7.8-16.8,15.8c-5-17.8-14.1-34.2-33.7-30.9
	c-17.2,2.9-24.4,13.7-26.8,27.4c-13.8-4.4-23.9-14.5-34.7-23.9c-3.3-2.8-8,1.9-4.8,4.8c11.9,10.4,23.1,21.4,38.6,26
	c-0.9,12.1,1,25.3,2.7,36.7c-17.4,1.4-34.7,3.2-52,5.2C117.5,413,117.5,419.7,121.8,419.2z M173.9,311.9c-0.1,1.5,0.1,3,0.7,4.6
	c2.3,6.6,9,7.8,15.1,7.8c8.5,0.1,15-5.6,14.4-14.3c-0.5-7.3-5-15-11.3-18.7c-8.3-4.8-15.7,1.4-19,9c-1.1,2.4-1.9,5-2.5,7.6
	C170.6,310,172.1,311.5,173.9,311.9z M181.4,300c0.3-0.5,0.7-1.1,1.2-1.6c0.7-0.9,1.8-1.6,2.5-1.9c0.9-0.3,1.7-0.3,2.3-0.2
	c4.2,0.9,7.6,5.8,9,10.1c0.7,2.2,1.1,4.7,0.7,6.5c-0.4,2-1.3,3.3-3.4,4c-3.1,1.1-8,1.1-10.9-0.4c-4.4-2.3-1.7-8.2,1.3-10.3
	C187.5,303.8,184.6,298.5,181.4,300z M245.9,338c6.4,4.7,18.2,0.3,22.4-5.6c3.9-5.6,0.3-12.7-4.9-15.8c-4.2-2.5-8.8-2.1-12.9-0.2
	c-0.7-0.3-1.5-0.3-2.3-0.5c-1.2-0.1-2.3,0.7-2.9,1.7C241.1,323.9,239,333,245.9,338z M248.5,326.5c0.5-0.5,0.9-1.1,1.5-1.5
	c0.6,0.5,1.3,1,1.9,1.4c3.2,1.9,6-1.9,4.6-4.6c0.9,0,1.9,0.1,2.9,0.5c2.1,0.7,4.5,3.7,3.6,6c-1.7,4.1-9.1,5.6-12.9,4.4
	C247.5,331.8,247.6,329.2,248.5,326.5z M295.1,340.6c1.5,3,4.2,5.8,7.4,6.6c5.4,1.5,10.3-2.8,13.1-7c2.9-4.4,4.2-10.3,2-15.2
	c-3.1-6.8-12.3-5.4-17.9-3.6c-2.1,0.7-2.7,2.7-2.2,4.3C293.7,330.2,292.4,335.1,295.1,340.6z M303,329.8c0.7-0.8,1-1.7,0.9-2.5
	c1.6-0.4,3.3-0.7,5-0.6c0.6,0,1.4,0.3,1.7,0.5c0.7,0.3,0.7,0.4,0.9,0.7c0.5,0.9,0.6,1.5,0.5,3.1c-0.1,0.9-0.7,3-1.3,4.2
	c-1.3,2.8-3.4,5.2-5.8,5.7c-0.4,0.1-1.3-0.1-2.2-0.9C299.3,336.5,299.9,333.1,303,329.8z M360.1,343.8c5.5-2.5,8.4-8.6,6.8-14.5
	c-1.6-5.8-7.2-7.7-12.5-7c-0.7-0.7-1.4-1.3-2.3-1.9c-1.6-0.9-3.6-0.3-4.6,1.2c-3,4.8-5,11.1-3.1,16.7
	C346.5,344.9,354.4,346.5,360.1,343.8z M351.4,329.1c0.2,0.3,0.4,0.5,0.6,0.7c1.8,2.1,4.3,0.9,5.3-0.9c1.5,0.1,2.8,0.8,3.4,2.7
	c0.7,2.7-1.5,5.6-4,6.2C349.7,339.8,349.8,333.9,351.4,329.1z M411.2,334.4c4.3,1.8,9-1.5,11.9-4.4c3.4-3.5,6-8,7.4-12.7
	c1.3-4.2,1.3-9-2.5-11.8c-3.7-2.6-9-0.7-13.1,1.3c-2-0.7-4.1-0.8-6.1-0.1c-4.6,1.7-5.5,6.7-5.5,11.1
	C403.2,323.9,405,331.8,411.2,334.4z M424.3,311.3L424.3,311.3L424.3,311.3c-0.1,0-0.1-0.1-0.1-0.1
	C424.2,311.2,424.3,311.2,424.3,311.3z M410.8,313.2L410.8,313.2L410.8,313.2c0.9,1.3,2.5,2,4.2,1.1c0.7,0.4,1.4,0.9,2.1,1.3
	c2.9,1.9,5.8-1.5,4.8-4.2c0.1-0.1,0.3-0.1,0.5-0.1c0.2-0.1,0.3-0.1,0.3-0.1c0,0,0.1,0,0.1,0c0.3,0,0.6-0.1,0.9,0
	c0,0,0.3,0.1,0.5,0.1c0,0,0.1,0.1,0.1,0l0,0l0,0l0,0c0.1,0.1,0.1,0.3,0.1,0.5c0,0.1,0,0.1,0,0.1c0,0.1,0,0.1,0,0.3
	c0,0.4,0,0.8-0.1,1.2l0,0c-0.1,0.3-0.1,0.6-0.2,0.9c-0.6,2.6-1,3.4-2.2,5.6c-0.5,1-1.1,1.9-1.7,2.9c-0.7,0.9-0.8,1.1-1.9,2.3
	c-0.3,0.4-0.7,0.7-1.1,1.1c-0.1,0.1-0.7,0.5-0.8,0.7c-0.3,0.2-0.6,0.5-0.9,0.6c-0.2,0.1-0.4,0.2-0.6,0.3c-0.1,0-0.1,0.1-0.1,0.1l0,0
	c-0.3,0.1-0.5,0.1-0.7,0.2c-0.1,0-0.3,0-0.4,0c-0.1,0-0.3-0.1-0.5-0.1c0.1,0-0.7-0.5-0.3-0.1c-0.1-0.1-0.3-0.3-0.5-0.5
	c-0.1-0.1-0.1-0.1-0.1-0.1c-0.3-0.4-0.6-0.9-0.8-1.4c-0.3-0.7-0.9-2.5-1.2-3.9c-0.4-1.8-0.5-3.6-0.5-5.5
	C409.9,315.3,410.3,313.8,410.8,313.2z"/>
<path fill="#7F8184" d="M396.6,516.5c3.2-5.9-5.8-11.1-9-5.2c-7.3,13.7-19.9-0.9-19.9-11.2c0-4.1,3-8.8,5-12.2
	c1.2-2.1,2.7-4,4.4-5.6c1.1-1,0.6-0.2,1.5,1.7c2.9,6,11.9,0.7,9-5.2c-7.9-16-20.9-2.9-26.9,9.5c-4-11-13.5-19.1-28.9-15.5
	c-6.5,1.5-3.8,11.5,2.7,10c25.2-5.8,23.6,43.2,1.3,33.3c-6-2.7-11.3,6.2-5.2,9c15.8,7,26-0.5,30.2-12
	C368.3,527.2,386.9,534.8,396.6,516.5z M448,476.2c-3.8,9.7-8.3,19-13.4,27.9c-7.8-8-12.1-18.8-17-28.7c-2.9-6-11.9-0.7-9,5.2
	c5.7,11.5,10.7,24,20.4,32.6c-2.1,3.4-4.3,6.8-6.6,10.1c-2,2.9-10.6,16.2-15.6,18.9c-0.9-1.7-2.6-2.9-4.6-2.9c-0.9,0-1.9,0-2.8,0
	c-4,0-6.4,4.4-4.5,7.8c17.2,31.5,59.5-59.6,62.9-68.2C460.4,472.8,450.4,470.1,448,476.2z M59.3,487c-7.1-8-20-13.3-31.8-14.5
	c-1.1-0.7-2.3-1-3.9-0.7c-0.5,0.1-1,0.2-1.5,0.4c-1.7,0-3.3,0.1-4.8,0.3c-3.8,0.5-5.4,4.2-4.8,7.1c-6.2,9.3-6.6,24.3-2.4,33.2
	c7.5,15.8,29.7,14.2,42.6,7.6C66,513.6,69.1,498.1,59.3,487z M52.4,507.4c-5.8,7.2-18,8.9-26.3,6.3c-6.3-2-8.7-8.2-8.8-14.1
	c-0.1-4.9,1.7-13.4,6.4-16.6C38.2,484.6,63.6,493.5,52.4,507.4z M252.1,525.2c6.6-0.5,6.7-10.9,0-10.4c-8.9,0.6-19.9,0.1-25.1-8.4
	c-5.8-9.5,1-25.5,12.9-23.5c6.6,1.1,9.4-9,2.7-10c-16.4-2.6-27.8,9.6-27.9,24.9c-0.3,0.1-0.6,0.3-0.9,0.5c-1.9,1.4-3.8,2.8-5.6,4.4
	c0.4-7.4,1.2-14.9,1.8-22.4c0.5-6.7-9.9-6.6-10.4,0c-0.4,5.2-3.6,10-7.6,13.5c-3.9-13.5-23.1-27.6-35.5-19.5
	c-5.6,3.6-0.4,12.6,5.2,9c7.1-4.6,19.7,8.3,20.6,15.1c1.6,13.1-14.4,18.6-24.7,17c-6.6-0.9-9.4,9-2.7,10c15.5,2.3,32.4-4.2,36.8-19
	c0.5-0.1,0.9-0.3,1.4-0.5c1.7-0.9,3.2-2.1,4.8-3.3c-0.3,5-0.3,10,0,14.9c0.3,4.8,7.2,7.6,9.7,2.6c2.1-4.5,5.4-8,9.2-11.1
	C222.5,522.3,238.2,526.1,252.1,525.2z M138.9,508c-0.1-2.9-2.3-5.1-5.2-5.2c-2.3-0.1-4.6-0.1-6.9-0.1c-0.8-8,0.9-16.1,1.1-24
	c0.1-3-2.4-5-5.2-5.2c-10.5-1-19.9-4.3-28.8,1.7c-2.1,0.4-4,2.1-4,4.9c0,8.2,0,16.4-1,24.6c-2.9,0.1-6,0.1-8.9,0
	c-3.6-0.1-5.6,3.4-5,6.6c1.2,6.4,1.1,13,1.9,19.4c0.8,6.6,11.2,6.6,10.4,0c-0.6-5.2-0.9-10.4-1.4-15.6c14.3-0.1,28.6-2,43-2.1
	c0.4,4.4,0.7,9.1-1.3,12.7c-3.2,5.8,5.7,11.1,9,5.2C140.5,524,139.1,515.8,138.9,508z M116.5,503.2c-5.8,0.3-11.5,0.8-17.2,1.1
	c0.7-6.9,0.9-13.9,1-20.8c4.8-2.9,11.2-1.5,17-0.4C116.9,489.8,116.1,496.4,116.5,503.2z M302,523.4c2.3,3.8,9.6,2.8,9.7-2.7
	c0.1-3.5,0.2-7.1,0.3-10.7c0.7-1.5,0.9-3.4,0.1-5c0.1-10.2-1-20.2-7.8-28.5c-9.2-11.2-25.3-5.1-31.2,5.8c-3.2,5.9,5.8,11.1,9,5.2
	c5.2-9.7,14.7-7.5,18.1,2.3c1.1,3.1,1.6,6.4,1.8,9.7c-11.6-3.9-25.9-6.2-30.9,7.6c-2.4,6.7,3.2,13.4,8.3,16.8
	C286.4,528.7,294.6,525.6,302,523.4z M283.1,507.7c4.4-3.2,12.6,0,18.7,2.5c-0.1,0.9-0.1,1.7-0.1,2.5h-0.1c-4.6,1.2-9,3.2-13.9,3.2
	C283.4,516.1,278.9,510.8,283.1,507.7z M482.6,475.2c-1.4-5.3-10.4-4.9-10.2,1.3c0.4,13,0.1,26.1-0.6,39
	c-0.6,11.3-2.1,22.2-0.5,33.5c0.9,6.6,10.9,3.8,10-2.7c-1-7.2-0.5-14.5,0.1-21.8c10.1,2.4,20.7,2.8,28-6.2
	c6.7-8.3,7.6-20.6,3.4-30.1C508,477.5,493,471.4,482.6,475.2z M502.1,510.8c-4.2,7.2-13.2,5-19.8,3.2c0.5-8.3,0.7-16.6,0.7-25
	c2.9-9.5,16.1-2.7,20,3.2C506.8,497.6,505.1,505.5,502.1,510.8z M586.4,514.5c-9.6,4.6-9.8-6.8-10.2-13.8
	c-0.5-8.3,0.4-16.8-0.6-25.1c-0.7-6.6-11.1-6.6-10.4,0c0.8,6.7,0.2,18.6,1.4,29.2c-0.3,0.1-0.5,0.2-0.7,0.3
	c-5.6,3.6-17.2,13.9-24.4,10.1c-6-3.3-4.7-14.6-4.1-20c0.7-7,1.5-13.5-0.4-20.3c-1.8-6.4-11.9-3.7-10,2.7
	c4.3,14.9-7.6,37.5,10.5,47.2c10.3,5.6,22.6-3.3,31.4-9.1c3.2,9.1,9.5,14.2,22.7,7.8C597.7,520.5,592.4,511.6,586.4,514.5z"/>
<path fill="#FFFFFF" d="M119.5,418.2c17.6-2.1,35.2-3.9,52.9-5.3c0.1,0.7,0.2,1.3,0.3,1.9c0.5,4.2,7.3,4.3,6.8,0
	c-0.1-0.8-0.2-1.6-0.3-2.4c37.6-2.9,75.3-4.4,113-4.6c62-0.5,123.6,6.1,185.4,10.4c4.4,0.3,4.3-6.4,0-6.8
	c-61.7-4.4-123.3-10.8-185.4-10.4c-38,0.2-76.2,1.7-114.1,4.7c-3.9-23.7-9.7-57.4,18.8-63.6c26.1-5.6,29.8,38.6,32.5,55.1
	c0.6,3.8,6.6,2.8,6.6-0.9c-0.1-12.6-5.2-34.7,11.1-39c21.5-5.8,32,17.1,37.2,33.5c1.1,3.6,6.8,3,6.6-0.9
	c-0.5-10.7,2.5-26.3,16.1-26.3c13.4-0.1,16.2,16.2,14.9,26.3c-0.5,4,5.4,4.2,6.6,0.9c4.2-10.9,3.9-28.3,19-28.8
	c16-0.5,24,18.6,24.3,32c0.1,3.9,5.5,4.5,6.6,0.9c2.7-8.4,3.9-17.2,6.2-25.8c2.2-8.2,6-20.2,16-21.2c11.8-1.2,19.3,8.1,21.2,18.6
	c1.7,9.7-0.2,19.9-1.5,29.4c-0.6,4.3,6.2,4.2,6.8,0c1.1-8.6,2.5-17.4,1.8-26.1c0.3,0,0.9-0.3,1.8-0.9c1.1-0.3,2.3-0.5,3.4-0.9
	c1.9-0.5,3.8-1.1,5.6-1.8c2.8-1.1,5.5-2.5,7.9-4.4c5.8-4.5,9.4-11.4,12.9-17.6c2.2-3.8-3.6-7.2-5.8-3.4c-3.8,6.6-7.4,13.7-14.3,17.6
	c-2.8,1.5-8.4,2.2-12.6,3.8c-0.1-0.6-0.3-1.2-0.4-1.7c-3.1-11.9-13.5-19-25.6-19.6c-17.8-0.7-22.9,19.7-26.3,36.7
	c-4.1-11.1-12.3-20.9-24.3-22.3c-8.4-0.9-15.8,1.5-20.6,8.6c-1.6,2.4-2.7,5.1-3.7,7.8c-3-8-9.1-14.2-18.9-15.2
	c-12.4-1.3-19.3,8.2-22.2,18.9c-7.3-15.6-19-28-38.8-25.2c-10.2,1.4-14.8,7.8-16.8,15.8c-5-17.8-14.1-34.2-33.7-30.9
	c-17.2,2.9-24.4,13.7-26.8,27.4c-13.8-4.4-23.9-14.5-34.7-23.9c-3.3-2.8-8,1.9-4.8,4.8c11.9,10.4,23.1,21.4,38.6,26
	c-0.9,12.1,1,25.3,2.7,36.7c-17.4,1.4-34.7,3.2-52,5.2C115.2,412,115.2,418.7,119.5,418.2z M171.7,310.9c-0.1,1.5,0.1,3,0.7,4.6
	c2.3,6.6,9,7.8,15.1,7.8c8.5,0.1,15-5.6,14.4-14.3c-0.5-7.3-5-15-11.3-18.7c-8.3-4.8-15.7,1.4-19,9c-1.1,2.4-1.9,5-2.5,7.6
	C168.3,309,169.9,310.5,171.7,310.9z M179.1,299c0.3-0.5,0.7-1.1,1.2-1.6c0.7-0.9,1.8-1.6,2.5-1.9c0.9-0.3,1.7-0.3,2.3-0.2
	c4.2,0.9,7.6,5.8,9,10.1c0.7,2.2,1.1,4.7,0.7,6.5c-0.4,2-1.3,3.3-3.4,4c-3.1,1.1-8,1.1-10.9-0.4c-4.4-2.3-1.7-8.2,1.3-10.3
	C185.2,302.8,182.4,297.5,179.1,299z M243.7,337c6.4,4.7,18.2,0.3,22.4-5.6c3.9-5.6,0.3-12.7-4.9-15.8c-4.2-2.5-8.8-2.1-12.9-0.2
	c-0.7-0.3-1.5-0.3-2.3-0.5c-1.2-0.1-2.3,0.7-2.9,1.7C238.8,322.9,236.8,332,243.7,337z M246.2,325.5c0.5-0.5,0.9-1.1,1.5-1.5
	c0.6,0.5,1.3,1,1.9,1.4c3.2,1.9,6-1.9,4.6-4.6c0.9,0,1.9,0.1,2.9,0.5c2.1,0.7,4.5,3.7,3.6,6c-1.7,4.1-9.1,5.6-12.9,4.4
	C245.2,330.8,245.4,328.2,246.2,325.5z M292.9,339.6c1.5,3,4.2,5.8,7.4,6.6c5.4,1.5,10.3-2.8,13.1-7c2.9-4.4,4.2-10.3,2-15.2
	c-3.1-6.8-12.3-5.4-17.9-3.6c-2.1,0.7-2.7,2.7-2.2,4.3C291.5,329.2,290.2,334.1,292.9,339.6z M300.8,328.8c0.7-0.8,1-1.7,0.9-2.5
	c1.6-0.4,3.3-0.7,5-0.6c0.6,0,1.4,0.3,1.7,0.5c0.7,0.3,0.7,0.4,0.9,0.7c0.5,0.9,0.6,1.5,0.5,3.1c-0.1,0.9-0.7,3-1.3,4.2
	c-1.3,2.8-3.4,5.2-5.8,5.7c-0.4,0.1-1.3-0.1-2.2-0.9C297,335.5,297.7,332.1,300.8,328.8z M357.8,342.8c5.5-2.5,8.4-8.6,6.8-14.5
	c-1.6-5.8-7.2-7.7-12.5-7c-0.7-0.7-1.4-1.3-2.3-1.9c-1.6-0.9-3.6-0.3-4.6,1.2c-3,4.8-5,11.1-3.1,16.7
	C344.2,343.9,352.1,345.5,357.8,342.8z M349.1,328.1c0.2,0.3,0.4,0.5,0.6,0.7c1.8,2.1,4.3,0.9,5.3-0.9c1.5,0.1,2.8,0.8,3.4,2.7
	c0.7,2.7-1.5,5.6-4,6.2C347.4,338.8,347.5,332.9,349.1,328.1z M408.9,333.4c4.3,1.8,9-1.5,11.9-4.4c3.4-3.5,6-8,7.4-12.7
	c1.3-4.2,1.3-9-2.5-11.8c-3.7-2.6-9-0.7-13.1,1.3c-2-0.7-4.1-0.8-6.1-0.1c-4.6,1.7-5.5,6.7-5.5,11.1
	C401,322.9,402.8,330.8,408.9,333.4z M422.1,310.3L422.1,310.3L422.1,310.3c-0.1,0-0.1-0.1-0.1-0.1
	C422,310.2,422.1,310.2,422.1,310.3z M408.6,312.2L408.6,312.2L408.6,312.2c0.9,1.3,2.5,2,4.2,1.1c0.7,0.4,1.4,0.9,2.1,1.3
	c2.9,1.9,5.8-1.5,4.8-4.2c0.1-0.1,0.3-0.1,0.5-0.1c0.2-0.1,0.3-0.1,0.3-0.1c0,0,0.1,0,0.1,0c0.3,0,0.6-0.1,0.9,0
	c0,0,0.3,0.1,0.5,0.1c0,0,0.1,0.1,0.1,0l0,0l0,0l0,0c0.1,0.1,0.1,0.3,0.1,0.5c0,0.1,0,0.1,0,0.1c0,0.1,0,0.1,0,0.3
	c0,0.4,0,0.8-0.1,1.2l0,0c-0.1,0.3-0.1,0.6-0.2,0.9c-0.6,2.6-1,3.4-2.2,5.6c-0.5,1-1.1,1.9-1.7,2.9c-0.7,0.9-0.8,1.1-1.9,2.3
	c-0.3,0.4-0.7,0.7-1.1,1.1c-0.1,0.1-0.7,0.5-0.8,0.7c-0.3,0.2-0.6,0.5-0.9,0.6c-0.2,0.1-0.4,0.2-0.6,0.3c-0.1,0-0.1,0.1-0.1,0.1l0,0
	c-0.3,0.1-0.5,0.1-0.7,0.2c-0.1,0-0.3,0-0.4,0s-0.3-0.1-0.5-0.1c0.1,0-0.7-0.5-0.3-0.1c-0.1-0.1-0.3-0.3-0.5-0.5
	c-0.1-0.1-0.1-0.1-0.1-0.1c-0.3-0.4-0.6-0.9-0.8-1.4c-0.3-0.7-0.9-2.5-1.2-3.9c-0.4-1.8-0.5-3.6-0.5-5.5
	C407.7,314.3,408,312.8,408.6,312.2z"/>
<path fill="#FFFFFF" d="M394.4,515.5c3.2-5.9-5.8-11.1-9-5.2c-7.3,13.7-19.9-0.9-19.9-11.2c0-4.1,3-8.8,5-12.2
	c1.2-2.1,2.7-4,4.4-5.6c1.1-1,0.6-0.2,1.5,1.7c2.9,6,11.9,0.7,9-5.2c-7.9-16-20.9-2.9-26.9,9.5c-4-11-13.5-19.1-28.9-15.5
	c-6.5,1.5-3.8,11.5,2.7,10c25.2-5.8,23.6,43.2,1.3,33.3c-6-2.7-11.3,6.2-5.2,9c15.8,7,26-0.5,30.2-12
	C366.1,526.2,384.7,533.8,394.4,515.5z M445.7,475.2c-3.8,9.7-8.3,19-13.4,27.9c-7.8-8-12.1-18.8-17-28.7c-2.9-6-11.9-0.7-9,5.2
	c5.7,11.5,10.7,24,20.4,32.6c-2.1,3.4-4.3,6.8-6.6,10.1c-2,2.9-10.6,16.2-15.6,18.9c-0.9-1.7-2.6-2.9-4.6-2.9c-0.9,0-1.9,0-2.8,0
	c-4,0-6.4,4.4-4.5,7.8c17.2,31.5,59.5-59.6,62.9-68.2C458.2,471.8,448.1,469.1,445.7,475.2z M57,486c-7.1-8-20-13.3-31.8-14.5
	c-1.1-0.7-2.3-1-3.9-0.7c-0.5,0.1-1,0.2-1.5,0.4c-1.7,0-3.3,0.1-4.8,0.3c-3.8,0.5-5.4,4.2-4.8,7.1c-6.2,9.3-6.6,24.3-2.4,33.2
	c7.5,15.8,29.7,14.2,42.6,7.6C63.8,512.6,66.8,497.1,57,486z M50.2,506.4c-5.8,7.2-18,8.9-26.3,6.3c-6.3-2-8.7-8.2-8.8-14.1
	c-0.1-4.9,1.7-13.4,6.4-16.6C35.9,483.6,61.3,492.5,50.2,506.4z M249.9,524.2c6.6-0.5,6.7-10.9,0-10.4c-8.9,0.6-19.9,0.1-25.1-8.4
	c-5.8-9.5,1-25.5,12.9-23.5c6.6,1.1,9.4-9,2.7-10c-16.4-2.6-27.8,9.6-27.9,24.9c-0.3,0.1-0.6,0.3-0.9,0.5c-1.9,1.4-3.8,2.8-5.6,4.4
	c0.4-7.4,1.2-14.9,1.8-22.4c0.5-6.7-9.9-6.6-10.4,0c-0.4,5.2-3.6,10-7.6,13.5c-3.9-13.5-23.1-27.6-35.5-19.5
	c-5.6,3.6-0.4,12.6,5.2,9c7.1-4.6,19.7,8.3,20.6,15.1c1.6,13.1-14.4,18.6-24.7,17c-6.6-0.9-9.4,9-2.7,10c15.5,2.3,32.4-4.2,36.8-19
	c0.5-0.1,0.9-0.3,1.4-0.5c1.7-0.9,3.2-2.1,4.8-3.3c-0.3,5-0.3,10,0,14.9c0.3,4.8,7.2,7.6,9.7,2.6c2.1-4.5,5.4-8,9.2-11.1
	C220.2,521.3,236,525.1,249.9,524.2z M136.6,507c-0.1-2.9-2.3-5.1-5.2-5.2c-2.3-0.1-4.6-0.1-6.9-0.1c-0.8-8,0.9-16.1,1.1-24
	c0.1-3-2.4-5-5.2-5.2c-10.5-1-19.9-4.3-28.8,1.7c-2.1,0.4-4,2.1-4,4.9c0,8.2,0,16.4-1,24.6c-2.9,0.1-6,0.1-8.9,0
	c-3.6-0.1-5.6,3.4-5,6.6c1.2,6.4,1.1,13,1.9,19.4c0.8,6.6,11.2,6.6,10.4,0c-0.6-5.2-0.9-10.4-1.4-15.6c14.3-0.1,28.6-2,43-2.1
	c0.4,4.4,0.7,9.1-1.3,12.7c-3.2,5.8,5.7,11.1,9,5.2C138.2,523,136.8,514.8,136.6,507z M114.3,502.2c-5.8,0.3-11.5,0.8-17.2,1.1
	c0.7-6.9,0.9-13.9,1-20.8c4.8-2.9,11.2-1.5,17-0.4C114.7,488.8,113.9,495.4,114.3,502.2z M299.8,522.4c2.3,3.8,9.6,2.8,9.7-2.7
	c0.1-3.5,0.2-7.1,0.3-10.7c0.7-1.5,0.9-3.4,0.1-5c0.1-10.2-1-20.2-7.8-28.5c-9.2-11.2-25.3-5.1-31.2,5.8c-3.2,5.9,5.8,11.1,9,5.2
	c5.2-9.7,14.7-7.5,18.1,2.3c1.1,3.1,1.6,6.4,1.8,9.7c-11.6-3.9-25.9-6.2-30.9,7.6c-2.4,6.7,3.2,13.4,8.3,16.8
	C284.2,527.7,292.3,524.6,299.8,522.4z M280.8,506.7c4.4-3.2,12.6,0,18.7,2.5c-0.1,0.9-0.1,1.7-0.1,2.5h-0.1
	c-4.6,1.2-9,3.2-13.9,3.2C281.1,515.1,276.7,509.8,280.8,506.7z M480.4,474.2c-1.4-5.3-10.4-4.9-10.2,1.3c0.4,13,0.1,26.1-0.6,39
	c-0.6,11.3-2.1,22.2-0.5,33.5c0.9,6.6,10.9,3.8,10-2.7c-1-7.2-0.5-14.5,0.1-21.8c10.1,2.4,20.7,2.8,28-6.2
	c6.7-8.3,7.6-20.6,3.4-30.1C505.7,476.5,490.8,470.4,480.4,474.2z M499.8,509.8c-4.2,7.2-13.2,5-19.8,3.2c0.5-8.3,0.7-16.6,0.7-25
	c2.9-9.5,16.1-2.7,20,3.2C504.5,496.6,502.8,504.5,499.8,509.8z M584.2,513.5c-9.6,4.6-9.8-6.8-10.2-13.8
	c-0.5-8.3,0.4-16.8-0.6-25.1c-0.7-6.6-11.1-6.6-10.4,0c0.8,6.7,0.2,18.6,1.4,29.2c-0.3,0.1-0.5,0.2-0.7,0.3
	c-5.6,3.6-17.2,13.9-24.4,10.1c-6-3.3-4.7-14.6-4.1-20c0.7-7,1.5-13.5-0.4-20.3c-1.8-6.4-11.9-3.7-10,2.7
	c4.3,14.9-7.6,37.5,10.5,47.2c10.3,5.6,22.6-3.3,31.4-9.1c3.2,9.1,9.5,14.2,22.7,7.8C595.4,519.5,590.1,510.6,584.2,513.5z"/>
</svg>
