<?xml version="1.0" encoding="utf-8"?>
<!-- Generator: Adobe Illustrator 18.1.1, SVG Export Plug-In . SVG Version: 6.00 Build 0)  -->
<!DOCTYPE svg PUBLIC "-//W3C//DTD SVG 1.1//EN" "http://www.w3.org/Graphics/SVG/1.1/DTD/svg11.dtd">
<svg version="1.1" id="Layer_1" xmlns="http://www.w3.org/2000/svg" xmlns:xlink="http://www.w3.org/1999/xlink" x="0px" y="0px"
	 viewBox="35.3 -37.8 198.7 259.8" enable-background="new 35.3 -37.8 198.7 259.8" xml:space="preserve">
<path fill="#231F20" d="M228.5,202.2c-0.5,7.2-7.9,12.3-15.1,13c-7.2,0.7-14.4-1.3-21.6-2.3c-28-4-81.6,11.8-108.6,3.1
	c-2.3-0.7-4.6-1.7-7.2-1.7c-3.4-0.1-6.6,1.6-9.9,2.2c-10.7,1.9-20.8-7.4-24.1-17.9c-3.3-10.5-1.6-21.7-1-32.7
	c1-17.2-0.7-34.6,1.6-51.7c1.3-9.7,3.9-19.4,4.6-29.2c0.7-9.1-0.1-18.4-1-27.4c-2.1-22.1-4-44.1-6.1-66.2c-0.5-5.2-1-10.8,1.5-15.6
	c4.4-8.4,15.4-10,24.9-10.2c14.5-0.2,29,0.6,43.4,1.5c7.9,0.5,16,1,23.9,1.5c19.4,1.2,62.7-0.5,82.1,0.8c2.8,0.2,5.8,0.5,8,2.3
	c1.9,1.8,2.7,4.5,3.3,7.1c7.2,37.7-6.5,76-5.8,114.3c0.2,15.5,2.8,30.8,4.5,46.3c2.3,21.2,2.9,42.6,1.7,64.1"/>
</svg>
